<?xml version="1.0" encoding="UTF-8" standalone="no"?>
<svg
   version="1.1"
   id="Layer_1"
   x="0px"
   y="0px"
   width="509.90778"
   viewBox="0 0 509.90778 527.16876"
   enable-background="new 0 0 1024 1024"
   xml:space="preserve"
   sodipodi:docname="balance.svg"
   height="527.16876"
   xmlns:inkscape="http://www.inkscape.org/namespaces/inkscape"
   xmlns:sodipodi="http://sodipodi.sourceforge.net/DTD/sodipodi-0.dtd"
   xmlns="http://www.w3.org/2000/svg"
   xmlns:svg="http://www.w3.org/2000/svg"><defs
   id="defs23" /><sodipodi:namedview
   id="namedview23"
   pagecolor="#ffffff"
   bordercolor="#000000"
   borderopacity="0.25"
   inkscape:showpageshadow="2"
   inkscape:pageopacity="0.0"
   inkscape:pagecheckerboard="true"
   inkscape:deskcolor="#d1d1d1"
   showgrid="false" />

<path
   fill="#fefefe"
   opacity="1"
   stroke="none"
   d="m 348.64178,302.37722 c 1.64484,-4.72571 3.16224,-9.50129 4.98621,-14.1568 0.97113,-2.47882 2.58466,-4.69886 3.69214,-7.13391 0.64056,-1.40876 0.74377,-3.05201 1.27777,-4.52106 1.16022,-3.19177 2.49676,-6.31955 3.65057,-9.51349 0.58362,-1.61536 0.67279,-3.44446 1.42804,-4.95569 1.8338,-3.66885 4.18879,-7.09213 5.84491,-10.8309 1.83167,-4.13501 3.24573,-8.47134 4.60309,-12.79492 1.07556,-3.42597 0.82544,-7.84131 2.95697,-10.19003 1.86896,-2.05939 3.5564,-3.68366 4.28986,-6.46567 1.55591,-5.90155 3.0047,-11.88532 5.24792,-17.53748 2.56207,-6.45547 6.11072,-12.51324 8.87476,-18.89789 1.02923,-2.37741 0.81439,-5.26935 1.6441,-7.76809 0.36926,-1.11194 1.9198,-1.83158 3.80933,-3.50373 0.0314,0.004 1.54285,0.19687 3.37201,0.43027 -1.4964,-3.04812 -2.8346,-5.77411 -4.34186,-8.84442 -17.81293,4.05142 -35.56928,-0.53448 -52.26526,-8.87485 -15.13129,-7.55871 -29.45795,-16.71448 -44.27008,-24.93042 -10.48181,-5.81399 -21.69763,-9.63797 -34.2052,-10.67663 9.43121,-13.69291 9.9223,-27.147314 0.17676,-40.851084 9.1914,-0.0443 16.94482,3.31888 23.62317,8.28141 10.08569,7.49447 19.95202,15.418704 29.06695,24.052004 12.15772,11.51523 23.84009,23.46032 38.77069,31.53164 9.36432,5.0622 19.34845,7.95325 29.87384,9.24536 3.83618,0.47092 7.6261,1.31849 11.40363,1.98829 0.88391,-6.14222 3.39856,-8.96802 8.3725,-9.01847 5.53289,-0.0561 11.61944,5.66736 12.05993,11.34061 0.72748,9.36871 -3.46936,14.28452 -14.62842,16.17486 1.95655,1.89365 3.49238,3.3801 5.0282,4.86655 25.51245,69.02112 54.34699,136.87168 82.71552,205.61832 0.65008,0 2.44195,-0.53693 3.50281,0.11529 2.01489,1.23871 4.5675,2.86274 5.18316,4.85602 1.2959,4.19538 0.84162,4.33569 5.52197,5.67774 -5.0935,6.53369 -11.29608,11.40478 -18.08764,15.70813 -17.39545,11.02258 -36.6897,16.60833 -56.79614,19.49853 -9.58277,1.3775 -19.38575,2.3653 -29.02655,1.97791 -26.54895,-1.0669 -52.76734,-4.68207 -76.3559,-18.01325 -8.26215,-4.66937 -15.36853,-11.39227 -22.94434,-17.2528 -0.664,-0.51368 -0.89233,-1.59064 -1.58697,-2.90571 1.67621,-0.406 2.95611,-0.716 4.47912,-1.08483 -0.58563,-4.94227 0.80634,-8.52637 5.13746,-8.69501 1.76409,-2.02637 3.06835,-3.15229 3.88195,-4.5614 0.85358,-1.47834 2.0362,-3.43988 1.67139,-4.81891 -0.98315,-3.71674 -0.55835,-6.20606 3.07691,-8.25476 0.91717,-0.51697 -0.0413,-3.72205 0.80126,-5.1297 2.67829,-4.47443 5.22602,-8.71369 5.83088,-14.23664 0.33923,-3.0979 4.53851,-5.51208 2.96637,-9.59771 5.85369,-0.97773 0.9328,-7.86762 5.56909,-10.05127 1.66528,-0.78431 1.88678,-4.39112 3.03357,-6.56958 2.43969,-4.63446 0.83807,-10.89447 5.9378,-14.50702 0.65595,-0.46466 0.54382,-2.01361 0.78894,-3.4878 0.001,-0.42749 0.35681,-0.73101 0.35681,-0.73101 m 75.01783,-77.82264 c 0,0 0.0444,0.0911 -0.67505,-0.47222 -0.0896,-1.04587 0.0471,-2.17548 -0.30426,-3.12446 -3.10535,-8.38888 -6.30732,-16.74191 -9.45661,-25.11462 -0.75598,-2.00982 -1.42193,-4.0535 -2.12927,-6.0816 -0.59564,0.11654 -1.19134,0.23312 -1.78699,0.34967 0,67.71206 0,135.42413 0,203.10376 27.62146,0 55.37018,0 83.37696,0 -0.15668,-2.02942 0.15942,-4.01093 -0.50629,-5.57446 -4.40356,-10.34327 -9.13037,-20.54896 -13.53693,-30.89106 -6.25433,-14.67908 -12.32196,-29.43768 -18.47241,-44.16101 -4.19134,-10.03369 -8.49481,-20.02228 -12.55078,-30.11035 -3.81769,-9.49518 -7.34125,-19.10818 -11.06299,-28.64252 -2.25165,-5.76812 -4.53149,-11.52975 -6.99615,-17.20859 -1.52185,-3.50634 -4.76123,-6.29794 -4.20917,-10.67874 0.052,-0.41272 -1.13489,-0.98156 -1.69006,-1.3938 m -24.04279,-33.52511 c -0.99823,2.8447 -2.92261,5.73224 -2.79339,8.52475 0.23675,5.1149 -6.3556,8.09134 -3.76594,13.72388 0.25287,0.54998 -1.06042,1.88299 -1.73791,2.78399 -1.20526,1.60321 -2.86719,2.98425 -3.64667,4.76148 -1.68774,3.84848 -3.02997,7.85864 -4.33978,11.85955 -1.09607,3.34818 -1.64569,6.89908 -2.96637,10.14496 -2.74481,6.74591 -5.96808,13.29642 -8.74738,20.02933 -1.85858,4.50256 -3.06762,9.27616 -4.97387,13.7554 -2.11634,4.97296 -5.021,9.62232 -6.97754,14.64801 -1.83673,4.71784 -2.55219,9.87201 -4.38739,14.59058 -1.38403,3.55853 -4.70288,6.52429 -5.49463,10.1206 -1.70123,7.72736 -6.65002,14.1355 -7.81793,22.14344 -0.64606,4.42987 -4.19782,8.37902 -6.0871,12.69909 -2.29187,5.24079 -3.75738,10.88813 -6.44495,15.89557 -1.9309,3.59766 -2.19476,7.61805 -4.52807,11.24689 -2.65686,4.1322 -2.94519,9.78717 -4.33167,15.04059 28.99896,0 56.53443,0 83.71887,0 -0.26226,-3.15369 -0.6416,-5.88159 -0.68554,-8.61487 -0.0988,-6.14551 -0.0313,-12.29376 -0.0317,-18.44086 -10e-4,-19.12988 -0.004,-38.25976 -0.003,-57.38964 2.5e-4,-14.44605 0.006,-28.8921 0.005,-43.33811 -0.002,-24.08756 -0.0126,-48.17514 -0.003,-72.2627 10e-4,-2.5838 0.143,-5.20449 -3.96045,-1.92193 z"
   id="path2" />
<path
   fill="#ffffff"
   opacity="1"
   stroke="none"
   d="m 243.5426,82.562206 c 7.5733,-7.62393 20.4043,-7.16308 27.06537,4.74628 0.3324,0.5943 1.12396,0.93173 1.84241,2.07843 0.14465,1.16376 0.14856,1.63788 0.15252,2.11197 2.52002,10.266204 2.0589,19.905674 -6.86169,27.127594 -2.33777,1.89255 -5.65186,2.57895 -9.07123,3.90882 -0.45715,0.37387 -0.36059,0.65829 -0.2641,0.94269 5.66504,1.1181 7.27143,4.68762 7.26355,10.23785 -0.12066,84.99887 0.19123,169.99969 -0.32959,254.99548 -0.0972,15.85932 3.87421,29.83441 11.35462,43.29865 1.01251,1.82245 1.98517,3.66724 3.19958,5.91491 -1.45721,0.28608 -2.64044,0.51832 -3.32068,0.65186 2.38263,3.11719 4.9336,6.45471 8.0091,10.47845 -18.71283,3.4217 -36.30554,2.6966 -54.87323,0.52906 2.07113,-2.93366 3.91055,-4.71631 4.76697,-6.88684 5.15182,-13.05731 11.17535,-25.91889 14.67865,-39.42401 2.18902,-8.43891 0.49365,-17.89283 0.49185,-26.8913 -0.0157,-78.33069 -0.0446,-156.66144 -0.0578,-234.99216 -4.6e-4,-2.66513 0.26172,-5.33584 0.15622,-7.9942 -0.18369,-4.6275 0.66748,-8.50714 7.58261,-9.81424 -15.11255,-3.81308 -18.80512,-14.08194 -18.96949,-26.492004 -4.21502,9.173344 0.77509,16.589294 5.16037,24.099484 -12.64562,1.21445 -23.92364,5.18305 -34.53176,11.32569 -18.91758,10.95425 -37.03397,23.38949 -58.103,30.31198 -13.07773,4.29684 -26.25842,4.59222 -40.10709,2.59994 0.93051,5.97178 -3.32034,7.22904 -7.54446,7.94651 -4.272429,0.7257 -11.172239,-4.30133 -12.533079,-8.58112 -2.43659,-7.66324 0.52515,-14.02747 8.08887,-17.38122 3.551689,-1.57483 9.550009,-0.11643 10.341299,3.41238 1.09708,4.89252 3.31321,4.62741 7.17792,3.71085 8.34656,-1.9795 17.22785,-2.37259 25.11942,-5.41465 7.92447,-3.05475 14.86953,-8.61242 22.32119,-12.94 13.03931,-7.5726 22.33295,-19.31811 33.03717,-29.48648 9.80195,-9.311194 19.70331,-18.537414 32.58442,-23.421144 4.13363,-1.56723 8.78665,-1.76459 13.18798,-2.2215 -0.0141,0.36716 0.0406,0.3046 -0.28381,0.41263 -0.095,0.83151 0.13446,1.55496 0.56336,2.46136 1.03485,-0.33206 1.8702,-0.84701 2.70556,-1.362 m -6.75748,11.4889 c 0.004,-0.39493 0.008,-0.78983 0.0126,-1.18476 -0.16388,-10e-4 -0.47022,-0.014 -0.4711,-0.003 -0.0303,0.39295 -0.0319,0.78812 0.45849,1.18766 z"
   id="path3" />
<path
   fill="#fefefe"
   opacity="1"
   stroke="none"
   d="m 5.554691,392.33529 c -0.0745,-5.22126 3.71478,-6.49549 6.78619,-9.00422 2.79276,-2.28106 3.88394,-6.70385 5.58218,-10.25097 1.90577,-3.98059 3.86683,-7.95807 5.39567,-12.08808 1.1557,-3.12194 0.63485,-7.98834 2.69674,-9.40466 3.68741,-2.53296 0.95261,-7.48267 4.91492,-9.41663 0.78183,-0.38159 0.13788,-3.11309 0.76614,-4.4779 2.96042,-6.43109 6.22507,-12.72217 9.18848,-19.15198 1.1954,-2.59369 1.89584,-5.41516 2.8262,-8.13141 1.10602,-3.22894 2.1203,-6.4934 3.34488,-9.67694 3.13495,-8.14959 6.22,-16.32409 9.62936,-24.35956 1.30936,-3.08599 3.55591,-5.76251 5.14289,-8.74911 0.55905,-1.05209 0.4238,-2.47281 0.60885,-3.72473 0.0104,-0.0702 0.0451,-0.1391 0.0785,-0.20334 0.32041,-0.6156 0.70688,-1.20828 0.92832,-1.85733 0.0726,-0.21283 -0.49368,-0.69812 -0.40707,-0.84293 0.60382,-1.00918 1.46691,-1.88934 1.93276,-2.94897 0.71982,-1.63748 1.1706,-3.39172 1.7706,-5.08399 0.4101,-1.15661 0.87964,-2.2922 1.32334,-3.43692 0.56448,-1.45645 1.05966,-2.94482 1.71121,-4.36126 0.94434,-2.05304 2.16156,-3.99485 2.94232,-6.10266 0.37647,-1.01633 -0.46701,-2.961 0.0755,-3.36448 4.59204,-3.41507 4.07205,-9.41528 7.20325,-13.72058 2.4418,-3.35748 2.36612,-8.46698 3.79669,-12.66586 1.00238,-2.94208 2.31226,-5.91733 4.14301,-8.39059 1.21554,-1.64213 3.1156,-2.48075 1.14297,-4.78623 -0.20056,-0.2344 0.65271,-1.77264 1.33325,-2.28867 2.84717,-2.15878 4.28025,-6.0754 3.34131,-10.08035 1.22229,-0.87249 2.5166,-1.79642 5.56983,-3.97586 -2.0318,-0.23767 -3.36905,-0.3941 -3.69382,-0.4321 1.55164,-1.72717 2.36099,-2.69561 3.24069,-3.59524 3.260529,-3.33417 11.040129,-0.82181 12.737609,3.93655 4.32483,12.12326 8.70035,24.22986 13.2077,36.28623 4.16178,11.1318 8.41739,22.23117 12.83063,33.26529 2.86899,7.17306 6.34189,14.1091 9.09552,21.32266 3.20777,8.40338 5.82208,17.03149 8.89795,25.48779 1.6929,4.65418 3.85684,9.13483 5.71671,13.73084 3.43661,8.49237 6.86435,16.98925 10.18863,25.526 4.40899,11.32238 8.62896,22.71899 13.10528,34.01428 1.98645,5.01263 4.40152,9.85535 6.6546,14.84741 4.44767,-0.62048 8.4299,1.59113 8.48194,6.22156 0.0446,3.97461 1.91931,4.27502 5.53738,4.24066 -5.79172,7.40326 -12.5549,12.51825 -19.84729,16.7287 -16.5116,9.53357 -34.18396,15.97375 -53.25598,18.05688 -10.25061,1.11969 -20.55991,3.12482 -30.78226,2.80384 -26.610499,-0.8357 -52.686249,-4.76166 -76.620479,-17.71912 -9.15051,-4.95392 -17.48715,-10.80926 -24.81778,-19.4732 2.06036,-0.85108 3.79672,-1.5683 5.55469,-2.70282 m 42.07266,-76.29706 c -2.08554,5.37579 -4.14832,10.7605 -6.26288,16.12488 -2.23749,5.67626 -4.58426,11.31005 -6.77383,17.00451 -2.51914,6.55152 -4.33289,13.44977 -7.51715,19.651 -4.0084,7.80615 -7.97397,15.49549 -9.77933,24.23291 28.7334,0 56.96707,0 84.631159,0 -0.47866,-3.46649 -1.25989,-6.60522 -1.28729,-9.75061 -0.13171,-15.09314 -0.0598,-30.18792 -0.0598,-45.28216 -4e-5,-15.87006 0.0995,-31.74091 -0.0254,-47.60999 -0.14379,-18.27331 -0.552939,-36.54449 -0.718709,-54.81778 -0.11759,-12.9631 -0.0228,-25.92813 -0.0228,-39.49798 -1.76691,1.70071 -3.32691,3.2023 -4.88687,4.70389 4.74243,3.82955 -3.21869,5.3771 -1.66574,9.15161 0.64154,1.55932 -0.93912,5.46383 -2.51825,6.23483 -4.54596,2.21954 -5.46567,6.74664 -5.72574,10.21506 -0.25864,3.44879 -2.0502,5.43374 -3.26157,8.03866 -0.73761,1.58612 -1.33636,3.24405 -1.89419,4.90445 -0.51352,1.52869 -0.64127,3.23377 -1.37525,4.63214 -1.67782,3.19654 -4.02603,6.08765 -5.3825,9.39765 -3.98316,9.71933 -7.55207,19.60748 -11.40171,29.38281 -4.40936,11.19671 -8.94595,22.34332 -13.39505,33.4306 0,0 -0.0565,0.0438 -0.67712,-0.14648 m 129.861509,49.40918 c -5.01382,-12.73737 -10.02762,-25.4748 -15.05865,-38.25592 0.14657,-0.29352 -0.11911,0.23852 -0.31498,0.63067 -1.4819,-3.93915 -3.51608,-7.8703 -4.41348,-12.04583 -1.74698,-8.12818 -6.6416,-14.96106 -8.66946,-23.0008 -1.52417,-6.04284 -4.45896,-11.72839 -6.73716,-17.58417 -0.32196,-0.82751 -0.34097,-1.79009 -0.73925,-2.56774 -1.86139,-3.6341 -4.16764,-7.08399 -5.646,-10.86152 -3.00055,-7.66705 -5.5003,-15.52874 -8.3714,-23.24887 -0.61639,-1.65744 -3.12066,-3.58786 -2.72058,-4.47967 1.74085,-3.88001 -2.05856,-5.99027 -2.36304,-9.17615 -0.18124,-1.89658 -1.98144,-3.63843 -3.19116,-5.68185 -0.79526,-2.72547 -1.72818,-5.92276 -2.33392,-7.99878 -5.11194,-3.84815 -3.6178,-9.28937 -4.51474,-13.79776 -4.00742,2.23077 -5.54401,4.98193 -4.96497,9.16195 0.41959,3.02924 0.87097,6.49323 -0.20227,9.15418 -0.89477,2.21841 3.18949,3.98413 -0.40588,6.47052 -1.40036,0.96841 -1.33426,6.80945 -0.74628,9.00583 1.23816,4.62472 -0.38052,9.044 0.91162,13.73971 1.54367,5.60996 -0.2297,12.10477 -0.40198,18.22092 -0.31039,11.02182 -0.72363,22.04794 -0.68515,33.07083 0.0581,16.63501 0.64014,33.26843 0.67344,49.9032 0.0277,13.8573 -0.27247,27.72022 -0.72358,41.57098 -0.15737,4.83155 1.44608,5.96363 6.25888,5.89753 22.81723,-0.31336 45.64115,-0.14246 68.46268,-0.14399 2.29261,-1.8e-4 4.58521,-6e-5 8.25076,-6e-5 -3.74963,-9.84247 -7.17385,-18.83069 -11.35345,-27.98321 z"
   id="path4" />
<path
   fill="#ffffff"
   opacity="1"
   stroke="none"
   d="m 293.42084,513.44039 c 11.66558,-1.80091 22.87616,-3.50318 34.0426,-5.4574 3.73486,-0.65363 6.58069,1.13226 8.13238,5.47992 1.58631,4.44464 -1.55792,5.94128 -4.52252,6.67126 -7.06457,1.73957 -14.22088,3.72803 -21.427,4.15693 -23.55224,1.40173 -47.15747,3.16528 -70.71518,2.83795 -19.65622,-0.27313 -39.54156,-1.0326 -58.72259,-6.67365 -3.65497,-1.07489 -6.83811,-2.41754 -5.54764,-7.23913 1.11075,-4.15003 4.40683,-5.55927 9.21707,-4.86316 12.84585,1.85901 25.69461,4.17224 38.62076,4.88977 18.85977,1.04694 37.78735,0.93561 56.68799,1.13751 4.58337,0.049 9.17431,-0.60754 14.23413,-0.94 z"
   id="path5" />
<path
   fill="#ffffff"
   opacity="1"
   stroke="none"
   d="m 241.13776,20.287676 c 5.17453,-7.01705 10.02685,-13.83469 14.61962,-20.28768 2.37378,9.80111 10.71058,17.19692 17.50422,25.68331 5.84375,7.29992 6.46148,17.19339 1.83105,24.76867 -5.44562,8.90906 -16.89722,11.3725 -24.32626,9.59787 -12.51816,-2.99026 -18.97196,-10.57275 -17.94245,-22.13006 0.41736,-4.68497 3.47281,-9.15769 5.46656,-13.66565 0.6022,-1.3616 1.67034,-2.51715 2.84726,-3.96646 z"
   id="path6" />
<path
   fill="#ffffff"
   opacity="1"
   stroke="none"
   d="m 271.44818,512.44899 c -10.48315,-0.002 -20.5249,0.59101 -30.46973,-0.13836 -15.49646,-1.1366 -30.94363,-3.03418 -46.37637,-4.90113 -5.14404,-0.62225 -10.17972,-2.14007 -15.26495,-3.24853 -0.0678,-0.63159 -0.13559,-1.26325 -0.2034,-1.8949 2.48556,-1.94098 4.9497,-3.91022 7.46231,-5.81555 2.87887,-2.18311 5.61813,-0.92834 8.80362,-0.28949 8.11142,1.62671 16.4006,2.83173 24.66018,3.15955 18.06876,0.71704 36.17142,1.27166 54.24466,0.96734 14.82117,-0.24945 29.72907,-0.89837 44.14417,-5.19787 3.05438,-0.91101 10.1712,4.25152 11.59619,8.62201 -18.78241,6.95324 -38.59283,6.93322 -58.59668,8.73693 z"
   id="path7" />
<path
   fill="#fefefe"
   opacity="1"
   stroke="none"
   d="m 208.94775,484.41982 c 8.60977,0.68384 16.7666,1.73645 24.94397,1.93262 13.40055,0.32159 26.82801,0.45568 40.21827,-0.0366 9.7741,-0.35932 19.48858,-2.18927 29.26446,-2.71265 5.74695,-0.30762 9.59955,3.86517 13.26593,8.52924 -41.03406,8.82153 -81.97943,7.87976 -123.6008,0.92492 4.14691,-7.23431 10.49506,-10.45489 15.90817,-8.63751 z"
   id="path8" />
<path
   fill="#fefefe"
   opacity="1"
   stroke="none"
   d="m 282.64386,468.43453 c 6.96686,-1.87226 11.9115,-0.32575 15.51324,5.85962 1.29834,2.22961 4.17029,3.54291 6.49482,5.41156 -13.82044,6.27869 -83.85914,5.96893 -99.85282,0.38623 1.82541,-1.46759 3.35556,-2.70545 4.89441,-3.93244 1.02969,-0.8211 2.53659,-1.40899 3.03485,-2.47345 3.93118,-8.39849 10.66352,-5.40667 17.07352,-4.61376 4.25781,0.52667 8.61316,0.31543 12.92538,0.34057 7.72913,0.045 15.46128,0.1441 23.18711,-0.0195 5.42718,-0.11487 10.84582,-0.62762 16.72949,-0.9588 z"
   id="path9" />
<path
   fill="#ffffff"
   opacity="1"
   stroke="none"
   d="m 254.58411,452.43703 c 8.91443,-0.33423 17.328,-0.73077 25.74615,-0.93903 1.32794,-0.0329 3.25592,0.36847 3.91351,1.28302 2.52723,3.51471 4.65052,7.31989 6.94171,11.0448 -6.61175,4.86872 -65.41656,4.90046 -72.55081,0.19135 1.6453,-2.15021 4.12989,-4.07288 4.77222,-6.48596 1.89557,-7.12103 7.12686,-6.37653 12.35712,-6.09888 6.10748,0.32416 12.2139,0.6687 18.8201,1.0047 z"
   id="path10" />
<path
   fill="#fdfdfd"
   opacity="1"
   stroke="none"
   d="m 246.02716,64.640456 c 5.94165,-2.05084 11.40186,-3.67999 17.17511,-0.33288 3.37079,1.95422 4.05676,4.6853 3.0437,7.76281 -1.01837,3.09363 -2.80249,5.71994 -7.10406,4.58557 -2.18097,-0.57513 -4.61988,-0.20462 -6.94217,-0.20498 -8.20487,-10e-4 -10.44953,-3.98426 -6.17258,-11.81052 z"
   id="path11" />
<path
   fill="#fefefe"
   opacity="1"
   stroke="none"
   d="m 243.39673,82.194966 c -0.68949,0.88223 -1.52484,1.39718 -2.36441,1.28945 -0.14756,-1.125 -0.29086,-1.62731 -0.43421,-2.1296 0,0 -0.0547,0.0626 -0.0951,0.071 0.88901,0.13959 1.81842,0.27075 2.89368,0.76917 z"
   id="path12" />
<path
   fill="#fefefe"
   opacity="1"
   stroke="none"
   d="m 272.87689,91.356156 c -0.27795,-0.33136 -0.28186,-0.80548 -0.27637,-1.63507 0.18976,0.26047 0.37006,0.87643 0.27637,1.63507 z"
   id="path13" />
<path
   fill="#fefefe"
   opacity="1"
   stroke="none"
   d="m 256.216,123.21187 c 0.0934,-0.0183 -0.003,-0.3027 0.0408,-0.69571 0.0168,0.0708 -0.10699,0.25025 -0.0408,0.69571 z"
   id="path14" />
<path
   fill="#fefefe"
   opacity="1"
   stroke="none"
   d="m 348.08453,302.79842 c -0.22021,-0.28473 -0.23852,-0.68707 -0.25677,-1.08948 0.22845,0.0415 0.45685,0.083 0.74969,0.39643 0.0643,0.27185 -0.29101,0.57537 -0.49292,0.69305 z"
   id="path15" />


<path
   fill="#fefefe"
   opacity="1"
   stroke="none"
   d="m 236.53705,94.048756 c -0.24234,-0.39719 -0.24072,-0.79236 -0.21042,-1.18531 8.8e-4,-0.0111 0.30722,0.001 0.4711,0.003 -0.004,0.39493 -0.008,0.78983 -0.26068,1.18241 z"
   id="path18" />



<path
   fill="#fefefe"
   opacity="1"
   stroke="none"
   d="m 423.63135,224.51253 c -0.21576,0.14499 -0.40326,0.33206 -0.59076,0.51911 0.0864,-0.27985 0.17267,-0.5597 0.46118,-0.61277 0.20227,0.22678 0.15784,0.13571 0.12958,0.0937 z"
   id="path22" />
<path
   fill="#fefefe"
   opacity="1"
   stroke="none"
   d="m 48.288391,316.22524 c 0.24164,-0.24707 0.49936,-0.53473 0.75708,-0.82245 -0.072,0.2182 -0.14386,0.4364 -0.50665,0.74017 -0.29087,0.0855 -0.23435,0.0417 -0.25043,0.0823 z"
   id="path23" />
</svg>
