<?xml version="1.0" encoding="UTF-8" standalone="no"?>
<!-- Created with Inkscape (http://www.inkscape.org/) -->

<svg
   width="95.228989mm"
   height="163.77708mm"
   viewBox="0 0 95.228989 163.77708"
   version="1.1"
   id="svg1"
   xml:space="preserve"
   xmlns="http://www.w3.org/2000/svg"
   xmlns:svg="http://www.w3.org/2000/svg"><defs
     id="defs1" /><g
     id="layer1"
     transform="translate(-58.322369,-60.011459)"><g
       id="g1"
       transform="matrix(0.26458333,0,0,0.26458333,58.057786,59.746876)"><path
         fill="#ffffff"
         opacity="1"
         stroke="none"
         d="m 0.999997,420.45807 c 2.968297,7.04306 5.420459,14.80087 8.999526,21.99829 11.784184,23.6976 29.15617,42.15851 53.455326,53.17252 10.174774,4.61187 21.020691,7.78927 31.661736,11.3164 20.039545,6.64237 35.830255,18.93399 49.451365,34.87247 9.97381,11.67071 17.78082,24.60101 25.40429,37.73877 2.05443,3.54047 3.63408,7.35644 5.43166,11.04596 0.42129,-0.11591 0.84259,-0.23181 1.2639,-0.34778 -1.96626,-7.28491 -3.42204,-14.75592 -5.99635,-21.81921 -7.16159,-19.64954 -16.54004,-38.04065 -30.53894,-53.96265 -15.4423,-17.56369 -34.38242,-28.46402 -57.346553,-32.45132 -5.749023,-0.9982 -11.54969,-1.69904 -17.304077,-2.94394 19.620003,-2.00016 39.24129,-3.47858 58.06204,4.90243 18.94984,8.43848 30.43147,24.16687 40.88836,41.39115 -1.80568,-5.83899 -3.21728,-11.83735 -5.49992,-17.48359 -4.61229,-11.40881 -10.06078,-22.36325 -18.83623,-31.36267 -7.57379,-7.76715 -17.0588,-11.50711 -27.3434,-13.46512 -11.74114,-2.23526 -23.613265,-3.78741 -35.344695,-6.06744 C 66.689217,454.90912 58.497887,447.96255 50.713051,441.01791 34.664494,426.70145 23.291563,408.91186 16.528797,388.6337 13.089209,378.32004 11.572594,367.25824 10.163866,356.40774 9.019815,347.59598 8.786744,338.57489 9.11428,329.68213 c 0.671823,-18.24039 4.779214,-35.82181 12.305276,-52.49075 3.220215,-7.13221 6.961639,-14.02909 11.577434,-20.65354 -0.83406,2.82282 -1.612058,5.66361 -2.511305,8.46549 -5.762226,17.95401 -6.460971,36.52368 -5.280721,55.01739 1.139476,17.85483 6.126077,34.78278 16.698574,49.78168 7.221672,10.24518 16.679859,17.83996 27.175419,24.11468 20.016731,11.96698 38.775483,25.50611 54.246883,43.03827 14.83458,16.81049 26.78186,35.60984 34.7875,56.63196 5.18047,13.60349 10.20415,27.33231 14.09259,41.33957 2.67002,9.61816 3.53195,19.77972 4.72734,29.75519 1.42185,11.86505 2.33524,23.79108 3.97522,35.78772 0.69715,-6.10083 1.28922,-12.21582 2.11005,-18.29999 3.17717,-23.54993 5.21231,-47.29761 12.91066,-70.03589 5.18251,-15.30737 14.12068,-28.46457 23.08725,-41.62479 12.6727,-18.59976 26.57138,-36.28186 43.4523,-51.20068 10.6691,-9.42898 22.03793,-18.30679 34.04962,-25.92303 21.1528,-13.41236 33.05567,-32.51316 38.49561,-56.36466 2.83661,-12.43716 3.71994,-25.07947 2.85953,-37.70932 -1.01154,-14.84842 -3.94941,-29.4161 -9.40134,-43.37129 -0.20639,-0.52831 -0.26081,-1.11598 0.70862,-2.10993 3.59719,8.00997 7.9313,15.78106 10.6231,24.08452 4.29959,13.26304 8.92402,26.68842 10.77759,40.40113 1.83646,13.58606 1.17084,27.66726 0.17603,41.42819 -0.76191,10.53937 -2.74866,21.2366 -5.96387,31.2969 -5.37912,16.83118 -14.22055,32.00077 -27.49231,44.01993 -8.0209,7.26386 -16.93274,11.14951 -28.71835,9.45804 -5.9603,-0.85538 -13.24063,2.58011 -18.94474,5.80689 -14.552,8.2319 -27.7028,18.52462 -39.32606,30.63891 -4.12598,4.30026 -8.14899,8.69937 -11.82596,13.92792 25.24939,-17.42026 53.16866,-19.04123 82.07451,-15.49872 -29.51761,2.9516 -56.08003,12.14093 -76.99139,34.4494 -20.1415,21.48719 -31.40834,47.21234 -37.41874,75.61524 5.94356,-9.74939 11.43816,-19.81177 17.95627,-29.16059 6.58759,-9.44848 13.48773,-18.87384 21.49971,-27.09192 14.51024,-14.88336 32.82189,-23.58358 52.69487,-29.2312 14.94525,-4.24722 28.86545,-10.77011 41.27478,-20.20211 11.8544,-9.01023 21.20627,-20.35676 28.33591,-33.29697 4.13364,-7.5025 6.78485,-15.81726 10.21771,-23.71671 0.38324,-0.88195 1.51612,-1.43817 2.58573,-2.45224 0.28442,1.40753 0.28442,3.12189 -0.0726,4.96448 -1.45199,4.27396 -2.66567,8.39249 -3.6228,12.56979 -6.44244,28.11835 -20.23434,51.84672 -41.05209,71.92905 -14.0618,13.565 -31.07242,19.56989 -49.52902,23.27497 -18.64235,3.74249 -35.75686,10.9588 -49.44584,24.57 -10.74818,10.68707 -19.31971,23.10346 -25.94653,36.73041 -3.4156,7.02362 -6.05601,14.42419 -9.04669,21.65448 -0.44444,0 -0.8889,0 -1.35558,-0.3197 -5.02673,-11.06592 -9.50106,-22.10449 -15.21208,-32.46112 -4.18329,-7.58612 -9.49164,-14.70764 -15.17023,-21.28345 C 135.04816,548.31812 114.69508,540.37463 92.43174,535.84094 83.077423,533.9361 73.446693,531.50818 65.049362,527.17255 47.105907,517.90808 33.794708,503.05142 23.181925,486.19955 12.851416,469.79593 5.611195,451.91885 2.913411,432.47012 2.83468,431.90253 1.662396,431.48663 0.999997,431 c 3e-6,-3.3613 3e-6,-6.72256 0,-10.54193 M 216.7045,496.94492 c 0.40596,-0.26319 0.81192,-0.52634 1.21788,-0.78949 -0.56844,0.053 -1.13686,0.10607 -1.21788,0.78949 z"
         id="path2" /><path
         fill="#ffffff"
         opacity="1"
         stroke="none"
         d="m 177.75,1 c 2.23921,11.295312 4.44276,22.558531 6.14047,33.897488 1.08884,7.272297 1.57823,14.64624 2.07958,21.992145 1.09745,16.080239 1.31517,32.256104 3.20018,48.238647 2.81872,23.89925 8.64064,47.17722 18.89665,69.09407 8.56268,18.29823 17.64923,36.35112 26.23585,54.63846 2.97991,6.3464 5.25119,13.03525 7.67577,19.63031 3.20308,8.71268 6.67499,17.36041 9.25615,26.26086 5.54193,19.10984 4.54024,38.23478 -1.22292,57.1673 -1.89759,6.23373 -3.98793,12.40884 -5.09025,19.25354 3.34942,-4.29456 7.37062,-8.22711 9.91765,-12.95404 6.65339,-12.34763 12.06752,-25.03635 13.4138,-39.47455 1.2518,-13.42483 0.009,-26.39422 -2.15158,-39.5213 -3.7078,-22.52545 -3.39139,-44.8438 5.00653,-66.49301 0.50366,-1.29834 1.46063,-2.42084 1.83716,-3.02864 -0.30576,9.48666 -0.61533,19.40469 -0.94745,29.32196 -0.47983,14.32873 2.88171,28.15842 5.59186,42.05177 3.58389,18.37235 8.68542,36.57251 7.29583,55.52921 -0.56814,7.75082 -2.06082,15.24798 -5.04528,22.8399 -2.29013,5.82575 -4.23484,12.04908 -7.00284,17.78046 -1.27225,2.6344 -3.99979,4.56683 -6.07346,6.81198 -0.2102,0.2276 -0.57864,0.37143 -0.67856,0.62961 -4.88836,12.63232 -16.33052,19.13189 -25.71469,27.57098 -12.52493,11.26361 -24.42326,23.07489 -32.44472,38.18189 -2.51843,4.74298 -5.15802,9.42166 -7.74214,14.12976 -0.43693,-0.091 -0.87385,-0.18204 -1.31077,-0.27307 2.71689,-12.41217 4.99972,-24.94025 8.27392,-37.20365 3.21138,-12.0281 7.43114,-23.78699 11.20835,-35.66403 -0.51442,-0.20505 -1.02883,-0.41006 -1.54323,-0.61508 -2.93263,4.68851 -6.04935,9.27307 -8.76528,14.08395 -10.45513,18.51984 -19.20329,37.78311 -23.80702,58.65308 -3.72157,16.87094 -3.11813,33.55923 3.52637,49.7619 0.16286,0.39713 0.0205,0.9194 -0.70528,1.72235 -3.10179,-6.23608 -6.46159,-12.35925 -9.25131,-18.73196 -5.70611,-13.03467 -9.50725,-26.72184 -8.58887,-40.97272 0.62897,-9.75974 2.81954,-19.51718 5.23406,-29.0419 4.29902,-16.95865 13.28415,-31.83695 21.68594,-47.01721 11.7045,-21.14749 12.96631,-43.37839 4.47615,-66.0726 -7.57472,-20.24732 -15.49074,-40.37365 -22.66958,-60.75992 -4.51168,-12.8121 -6.73409,-26.30896 -5.77422,-39.87886 0.88451,-12.50438 3.21558,-24.90644 5.07222,-38.54978 -2.00211,4.89992 -3.64838,8.81301 -5.20485,12.76149 -3.64088,9.23616 -7.18144,18.51219 -10.86619,27.73069 -7.07398,17.69755 -13.54035,35.6621 -16.92351,54.40988 -2.13689,11.84158 -2.82248,23.89563 -1.54009,36.20273 1.62068,15.55358 7.1388,29.62988 12.74744,43.83444 0.63612,1.61111 1.70129,3.04995 2.50842,4.59945 0.121,0.23233 -0.0837,0.63437 -0.21667,1.43012 -9.79447,-7.06751 -17.44055,-15.73486 -23.24877,-25.98941 -9.44342,-16.6727 -14.58686,-34.73642 -12.19036,-53.74332 1.75784,-13.94157 5.39643,-27.8539 9.91958,-41.19517 9.09877,-26.83736 19.91644,-53.09339 28.95027,-79.95073 5.05306,-15.02258 8.87612,-30.61119 11.55606,-46.235873 2.56433,-14.950645 3.12465,-30.264503 4.1958,-45.444828 0.69802,-9.892387 0.85234,-19.82962 1.00544,-29.750542 C 177.99277,9.072106 177.33334,5.484961 177,1.451424 177,1 177.5,1 177.75,1 Z"
         id="path3" /><path
         fill="#ffffff"
         opacity="1"
         stroke="none"
         d="m 100.83334,329.00064 c 5.78703,15.45764 15.50201,28.66821 24.09577,42.54709 9.44644,15.25592 18.33976,30.85455 27.43997,46.32391 0.38783,0.65927 0.43216,1.5206 0.49278,2.87003 -0.25432,0.72354 -0.36491,0.86484 -0.47551,1.00616 -7.95976,-8.57715 -15.70051,-17.37216 -23.94922,-25.6618 -6.488,-6.52027 -13.94739,-12.08078 -20.36567,-18.66211 -12.430263,-12.74603 -22.615039,-26.9628 -27.15562,-44.63425 -2.884392,-11.22571 -4.169464,-22.46115 -1.934067,-33.92682 3.304131,-16.94729 6.87159,-33.84698 9.888581,-50.84477 1.281624,-7.22069 1.716415,-14.62622 2.055565,-21.96994 0.337966,-7.31813 0.306396,-14.67406 -0.0083,-21.99428 -0.206994,-4.81546 -1.202645,-9.59701 -1.845131,-14.39375 0.389526,-0.1178 0.77906,-0.23559 1.168594,-0.35338 2.252563,7.58551 5.533936,15.0399 6.521233,22.78667 1.556198,12.21052 2.103065,24.62028 2.040496,36.94043 -0.03835,7.55327 -2.472816,15.06453 -3.00122,22.65245 -0.701576,10.0748 -1.009629,20.21942 -0.682984,30.30804 0.207383,6.40485 1.875733,12.76242 2.611039,19.71698 -2.72287,4.89551 -1.815766,6.69648 3.103654,7.28934 z"
         id="path6" /><path
         fill="#ffffff"
         opacity="1"
         stroke="none"
         d="m 100.81335,328.6369 c -4.899425,-0.22912 -5.806529,-2.03009 -3.032054,-6.51623 1.223686,1.93988 2.117882,4.04617 3.032054,6.51623 z"
         id="path7" /><path
         fill="#ffffff"
         opacity="1"
         stroke="none"
         d="m 152.89906,421.12457 c 0.54567,0.68173 0.91042,1.56275 1.27516,2.44376 -0.29235,0.10379 -0.58471,0.20761 -0.87707,0.31143 -0.16287,-0.54126 -0.32575,-1.08249 -0.69971,-1.87784 -0.10049,-0.39541 0.0101,-0.53671 0.30162,-0.87735 z"
         id="path8" /></g></g></svg>
