<?xml version="1.0" encoding="UTF-8" standalone="no"?>
<!-- Created with Inkscape (http://www.inkscape.org/) -->

<svg
   width="176.74167mm"
   height="170.39166mm"
   viewBox="0 0 176.74167 170.39166"
   version="1.1"
   id="svg1"
   xml:space="preserve"
   xmlns="http://www.w3.org/2000/svg"
   xmlns:svg="http://www.w3.org/2000/svg"><defs
     id="defs1" /><g
     id="layer1"
     transform="translate(-2.2567999,-71.905101)"><g
       id="g1"
       transform="matrix(0.26458333,0,0,0.26458333,-5.997257,69.556307)"><path
         fill="#000000"
         opacity="1"
         stroke="none"
         d="m 365.19644,652.87733 c -111.25909,0 -222.51818,0 -334.000004,0 0,-106.35468 0,-212.70947 0.446689,-319.54239 6.947124,0.1954 13.44381,0.90796 19.948979,1.53207 7.502865,0.71976 15.027283,1.23493 22.516979,2.06714 10.861936,1.20688 21.686946,2.75196 32.553977,3.90531 11.07186,1.17508 22.19161,1.90127 33.26121,3.09472 13.94439,1.50339 27.84549,3.40943 41.79106,4.90046 11.24005,1.20172 22.53194,1.91452 33.77637,3.08026 14.78218,1.53256 29.5339,3.35693 44.31094,4.94177 11.75211,1.26041 23.52255,2.34973 35.29901,3.51642 -1.32818,-4.57291 -3.67849,-8.90589 -3.55581,-13.1677 0.16342,-5.67816 -3.58307,-5.64868 -6.80225,-6.20114 -4.51251,-0.77438 -9.15663,-0.77398 -13.74243,-1.13089 -8.50771,-0.66214 -17.01798,-1.29623 -25.51993,-2.02633 -15.02263,-1.29004 -30.04189,-2.62076 -45.05713,-3.9939 -2.32646,-0.21274 -4.62408,-0.74082 -8.33389,-1.35449 33.99273,-2.89789 66.463,-5.66602 98.38617,-8.38748 1.62533,-6.51969 3.05102,-12.2385 4.65234,-18.66187 -4.87817,0.49741 -9.43268,0.98489 -13.99199,1.42236 -14.0152,1.34479 -28.03345,2.65787 -42.04822,4.00708 -13.68109,1.31714 -27.36377,2.62036 -41.03775,4.00849 -15.93701,1.6178 -31.86424,3.33157 -47.79776,4.98404 -13.0147,1.3497 -26.03107,2.68362 -39.04915,4.00036 -13.343351,1.34964 -26.689811,2.66861 -40.034674,4.00333 -13.324396,1.33264 -26.648506,2.66812 -39.97274,4.00238 0,-107.59522 0,-215.19043 0,-322.9999988 111.021344,0 222.042824,0 333.541564,0.431809 -0.5271,8.5209018 -1.59539,16.6026848 -2.52084,24.7007938 -1.38971,12.160576 -2.67548,24.333004 -4.01224,36.499645 -1.99801,18.185173 -3.9924,36.370761 -6.00628,54.554171 -1.65277,14.92292 -3.27488,29.84961 -5.01578,44.76233 -1.58685,13.59288 -3.39365,27.1602 -4.96173,40.75514 -2.03198,17.61677 -3.92346,35.24974 -5.86777,52.80638 6.21854,-1.6868 12.3573,-3.35196 19.13458,-5.19032 3.32407,-31.4048 6.68363,-63.14493 10.16147,-96.00267 3.20822,32.83325 6.30536,64.52952 9.39273,96.12588 6.53727,1.56995 12.67356,3.04358 19.01303,4.56601 0.064,-1.07771 0.19059,-1.73811 0.12821,-2.38014 -0.99585,-10.25075 -1.93018,-20.50862 -3.05774,-30.74512 -0.89093,-8.08833 -2.01093,-16.15175 -3.05692,-24.22264 -1.27575,-9.84331 -2.64892,-19.67452 -3.8493,-29.52689 -0.82987,-6.81105 -1.37283,-13.65663 -2.1611,-20.47323 -1.23508,-10.68036 -2.65326,-21.33998 -3.83249,-32.02618 -0.82736,-7.49744 -1.2981,-15.03376 -2.0853,-22.53622 -1.2456,-11.871103 -2.64999,-23.725466 -3.93387,-35.59268 -0.73828,-6.824215 -1.3302,-13.664223 -2.06143,-20.489254 -1.28659,-12.008783 -2.62949,-24.011536 -3.94879,-36.0168148 110.92624,0 221.85248,0 333,0 0,107.3546688 0,214.7094888 -0.42639,322.5391188 -8.3244,-0.52816 -16.20966,-1.6477 -24.12323,-2.50799 -13.15778,-1.43039 -26.33435,-2.68823 -39.50183,-4.03028 -13.00134,-1.3251 -26.0011,-2.66507 -39.00165,-3.99759 -13.00684,-1.33312 -26.01386,-2.6647 -39.02069,-3.99774 -13.00727,-1.33306 -26.01306,-2.68063 -39.02204,-3.9971 -13.34329,-1.35028 -26.68005,-2.7771 -40.0372,-3.97506 -14.24548,-1.27759 -28.51144,-2.32645 -42.79245,-3.47712 1.54636,6.10831 3.07578,12.14969 4.71021,18.60587 32.21405,2.78259 64.69617,5.58832 97.17828,8.39407 -0.40951,1.07779 -0.91995,1.37061 -1.44894,1.40918 -14.08859,1.02744 -28.18411,1.96408 -42.26801,3.05127 -16.34564,1.26175 -32.68719,2.58771 -49.01288,4.07919 -1.74093,0.15906 -4.47485,1.27686 -4.8479,2.52006 -1.55743,5.19033 -2.38897,10.59851 -3.56927,16.32791 3.05377,0 5.71661,0.23416 8.32495,-0.0435 8.10117,-0.86237 16.17209,-2.00791 24.27289,-2.87421 7.49298,-0.80133 15.01791,-1.30191 22.51343,-2.08215 12.01568,-1.25083 24.01556,-2.65344 36.02838,-3.93268 6.99579,-0.745 14.00928,-1.32352 21.00516,-2.0675 12.01062,-1.27723 24.0064,-2.69605 36.02239,-3.91871 7.98737,-0.81277 16.01105,-1.26971 23.99671,-2.09707 11.68097,-1.2103 23.33813,-2.64795 35.01361,-3.91446 6.99561,-0.75888 14.01343,-1.31265 21.00903,-2.07166 11.67102,-1.26625 23.33216,-2.62312 34.99744,-3.94185 0,106.59543 0,213.19086 0,320 -110.68799,0 -221.37616,0 -332.54327,-0.45489 -0.46528,-2.78687 -0.66892,-5.14423 -0.40073,-7.44654 1.24353,-10.67615 2.72073,-21.32568 3.91095,-32.00738 0.85156,-7.64258 1.26221,-15.33368 2.08279,-22.98035 1.21735,-11.34381 2.67362,-22.6618 3.93055,-34.00165 0.77502,-6.992 1.2626,-14.01629 2.06805,-21.00433 1.23126,-10.68268 2.65848,-21.34253 3.93869,-32.01975 0.77765,-6.48568 1.36063,-12.99499 2.16397,-19.4772 1.22043,-9.84766 2.53677,-19.68359 3.84888,-29.51962 1.22546,-9.18665 2.59778,-18.3548 3.71988,-27.55374 0.93734,-7.6843 1.60626,-15.40134 2.39117,-23.07584 -6.49768,1.77576 -12.54428,3.42822 -19.19366,5.24539 -3.05747,29.92938 -6.16483,60.34732 -9.27222,90.76526 -0.87762,-2.4873 -1.39664,-5.00095 -1.6188,-7.54056 -0.74305,-8.49338 -1.25092,-17.00879 -2.08832,-25.49212 -1.20288,-12.18506 -2.60868,-24.3501 -3.94297,-36.52204 -0.65829,-6.00528 -1.2102,-12.0285 -2.13058,-17.99417 -0.21738,-1.40881 -1.47388,-3.39325 -2.68384,-3.78699 -5.55649,-1.8081 -11.26596,-3.14605 -17.02737,-4.68121 0.60757,4.69446 1.254,9.47644 1.84039,14.26581 1.08991,8.90158 2.07651,17.81625 3.23105,26.70926 1.52869,11.77438 3.27786,23.52075 4.74265,35.3027 1.1683,9.39713 2.00521,18.83493 3.07571,28.24484 1.27075,11.17072 2.69259,22.32438 3.93631,33.49796 0.79678,7.15808 1.31988,14.34637 2.09033,21.50763 1.25693,11.6831 2.66528,23.34991 3.91339,35.03393 0.78269,7.32685 1.28583,14.68396 2.09873,22.00702 1.22125,11.00226 2.60412,21.98664 3.91827,32.97858 M 517.34668,406.88298 c -5.39322,-2.00898 -10.77857,-4.03925 -16.18109,-6.02292 -16.10883,-5.91458 -32.19153,-11.90271 -48.35163,-17.67408 -7.63855,-2.72796 -15.43026,-5.02703 -24.34204,-7.90448 2.04328,4.95389 3.87903,8.65296 5.09543,12.5456 1.49069,4.77044 4.15875,7.54245 9.28287,8.43261 3.90643,0.67863 7.60879,2.4722 11.44375,3.6316 30.87983,9.33572 61.76093,18.66757 92.66364,27.92715 6.17657,1.85074 12.4472,3.38773 19.61047,5.32211 -4.2669,-3.6517 -7.74963,-6.58935 -11.18518,-9.58123 -8.05041,-7.01068 -15.98266,-14.16043 -24.13647,-21.04822 -13.85187,-11.70114 -27.73566,-23.36981 -41.83206,-34.77271 -3.9751,-3.21554 -7.15,-8.32592 -13.78608,-6.94006 -5.59594,1.16867 -11.33761,1.63928 -17.97552,2.55084 20.92746,14.66147 41.13266,28.81687 60.88895,43.27017 -0.13926,0.11338 -0.27854,0.22678 -1.19504,0.26362 m -304.47441,-0.2887 c -0.14119,-0.11099 -0.28237,-0.22195 0.035,-0.85571 19.50102,-13.93021 39.00204,-27.86042 59.13801,-42.24417 -6.18291,-1.00663 -10.96423,-1.9495 -15.78964,-2.51926 -3.94998,-0.46643 -7.62871,-0.20615 -10.87758,3.05939 -4.14203,4.16323 -8.88429,7.73318 -13.40228,11.51776 -10.02465,8.39737 -20.06856,16.7717 -30.10901,25.15017 -5.76866,4.81388 -11.62991,9.52097 -17.29712,14.45127 -6.48956,5.64569 -12.81026,11.48553 -20.18124,18.12042 2.32919,-0.74197 3.35693,-1.09882 4.40127,-1.39764 23.30829,-6.67038 46.64801,-13.23304 69.91815,-20.03379 16.6371,-4.86224 33.1944,-10 49.75156,-15.13028 2.25613,-0.69906 5.33801,-1.51507 6.25806,-3.23105 2.95077,-5.50347 5.06622,-11.45474 7.79818,-17.93063 -2.37936,0.83115 -3.86782,1.34754 -5.35388,1.8707 -27.96385,9.84466 -55.92743,19.69012 -84.2895,29.17282 m -42.5414,-263.40675 c -0.38958,-1.29122 -0.39158,-2.97596 -1.23487,-3.80651 -3.95809,-3.89828 -8.14743,-7.56173 -12.45523,-11.49246 -0.91734,1.06503 -1.80085,2.09079 -2.62231,3.04451 4.64908,4.41428 8.99262,8.61807 13.47179,12.67198 0.46352,0.4195 1.73435,-0.053 3.29471,0.71149 -1.69511,2.19527 -3.34505,4.42728 -5.09343,6.57927 -6.47542,7.97029 -13.43988,15.58833 -19.39283,23.9295 -17.41158,24.39684 -30.48943,51.01888 -39.02898,79.77622 -5.09255,17.1494 -8.489281,34.63496 -9.315811,53.9579 2.274761,-1.46555 4.836551,-2.21274 5.067361,-3.40946 1.65708,-8.59222 2.7398,-17.29278 4.19444,-25.927 3.68336,-21.86323 11.195,-42.50937 20.63587,-62.44653 8.10143,-17.10854 18.44614,-32.91715 29.96893,-47.89922 5.25454,-6.83201 11.25711,-13.08871 17.33223,-20.0803 4.03127,4.22407 7.02787,8.11921 10.74314,11.12648 16.27069,13.17001 28.89772,29.6791 42.17274,45.57524 11.06656,13.2516 21.65254,26.90396 32.6507,40.21412 1.1855,1.43471 3.69874,1.77228 5.59608,2.61878 0.15897,-0.35594 0.31795,-0.71189 0.47692,-1.06783 -13.97622,-17.54034 -27.95243,-35.0807 -41.92865,-52.62105 0.35214,-0.32315 0.7043,-0.6463 1.05644,-0.96945 17.42407,14.08898 34.84816,28.17797 52.49211,42.44474 2.13202,-2.01545 2.55298,-3.2448 -0.21488,-5.32621 -5.48469,-4.12446 -10.51557,-8.84686 -15.82078,-13.21681 -8.43395,-6.94716 -16.95038,-13.79405 -25.41121,-20.70871 -13.39088,-10.94372 -26.80305,-21.862 -40.12923,-32.88411 -6.54355,-5.41218 -12.91417,-11.03342 -19.96197,-17.0733 7.6289,-6.70157 15.21715,-13.49226 22.94099,-20.12502 13.82689,-11.87369 29.15467,-21.55918 45.32323,-29.825092 16.79498,-8.586174 34.38116,-15.455955 52.72377,-19.822151 13.36288,-3.180832 27.03186,-5.204544 40.65265,-7.114677 6.1676,-0.864929 6.2648,-0.171738 6.87399,-6.99128 -13.32941,2.302594 -26.4844,4.306908 -39.52688,6.881432 -31.4741,6.212837 -60.33011,18.877022 -87.29337,36.081388 -16.44557,10.49339 -31.24327,23.02376 -45.41167,36.35847 -0.86505,0.81415 -2.2881,1.03541 -2.82599,0.83565 m 301.65404,381.91331 c 0.17881,0.5412 0.35761,1.0824 0.53641,1.6236 0.27975,-0.10474 0.55951,-0.20948 0.83926,-0.31415 -0.36477,-0.86591 -0.72955,-1.73175 -1.1611,-3.40051 -14.35785,-48.11365 -28.75372,-96.2146 -46.72473,-143.84812 -4.47061,4.88767 -7.98593,8.73093 -12.02145,13.14292 10.76763,27.8908 21.81799,56.51394 32.86834,85.13711 -0.14407,0.0601 -0.28814,0.12018 -0.43222,0.18027 -15.64514,-20.89002 -31.29025,-41.78003 -47.16409,-62.97543 -0.53674,3.09301 -1.44351,5.49591 -1.26456,7.81503 0.54148,7.01785 -4.05603,14.05756 3.27219,21.05502 10.00552,9.5539 18.16229,21.03269 27.22745,31.58679 5.57019,6.48514 11.38775,12.75711 17.03882,19.17365 8.88122,10.08426 17.71569,20.20972 26.98568,30.82382 M 445.9382,183.5324 c 0.11347,0.1391 0.2269,0.2782 0.26111,1.18181 -2.51383,6.41631 -5.14548,12.78937 -7.52002,19.25681 -8.07678,21.99847 -16.09213,44.01973 -24.03418,66.06714 -0.72443,2.01101 -2.43042,4.14544 0.47809,6.33856 3.70346,2.79245 6.99084,6.13672 10.99109,9.72113 16.01404,-50.03333 32.2763,-100.84218 48.5386,-151.65102 -0.38385,-0.18783 -0.7677,-0.37566 -1.15155,-0.56349 -4.20663,4.61331 -8.52112,9.13349 -12.59952,13.85751 -11.8865,13.76829 -23.62338,27.6659 -35.5252,41.42084 -9.56003,11.04848 -19.28681,21.95262 -28.8917,32.9626 -0.55978,0.6417 -1.06103,1.705 -0.96182,2.49306 0.87763,6.96927 1.89731,13.92065 3.01495,21.87332 16.06662,-21.62816 31.58432,-42.51741 47.40015,-62.95827 m -115.21924,60.36239 c 2.09488,3.58319 1.47083,-0.93244 2.40473,-0.80733 0.69107,-5.82993 1.6112,-11.6471 1.93692,-17.49735 0.10086,-1.81131 -1.07077,-3.97847 -2.26117,-5.51759 -2.50647,-3.24068 -5.4646,-6.12735 -8.14252,-9.24092 -12.07446,-14.03883 -24.13236,-28.09203 -36.16153,-42.16969 -5.31574,-6.22097 -10.46065,-12.5897 -15.84723,-18.74778 -4.46674,-5.1065 -9.17412,-10.00253 -13.77487,-14.99181 -0.38905,0.24235 -0.77812,0.48469 -1.16718,0.72704 15.51398,50.21483 28.87644,101.11109 48.27948,151.12961 2.88489,-3.32138 4.85737,-6.78344 7.82416,-8.73016 4.50669,-2.95719 3.55493,-6.19284 2.01322,-9.94034 -0.54914,-1.33475 -1.13273,-2.65677 -1.6362,-4.00855 -8.84348,-23.74261 -17.68161,-47.48721 -26.50733,-71.23641 -1.2875,-3.46457 -2.50523,-6.95507 -3.75525,-10.43357 0.39475,-0.2371 0.78948,-0.47421 1.18422,-0.71133 0.3365,0.57554 0.63001,1.18179 1.0159,1.72207 6.58312,9.21701 13.07762,18.49955 19.79555,27.61745 7.99078,10.84552 16.17563,21.5481 24.7991,32.83666 m -13.51819,215.47576 c 4.52719,-5.19387 9.13642,-10.31954 13.5405,-15.61578 1.71665,-2.06436 4.29855,-4.57779 4.19098,-6.77429 -0.34046,-6.95364 -1.76499,-13.85419 -2.85974,-21.39151 -15.7674,21.12015 -31.04001,41.57758 -46.31264,62.035 0.11278,-2.82562 1.39873,-5.01898 2.29591,-7.36123 9.23023,-24.0965 18.45472,-48.19574 27.4892,-72.36585 0.85452,-2.28616 1.47665,-5.77469 0.34845,-7.4639 -2.69101,-4.02905 -6.49365,-7.31567 -9.84732,-10.90216 -0.65918,0.10157 -1.31839,0.20316 -1.97757,0.30472 -15.51099,48.78104 -31.022,97.56207 -46.53299,146.34311 3.38467,-2.16119 5.76381,-4.61145 8.01798,-7.17175 7.04473,-8.00138 14.08126,-16.01062 21.04882,-24.07913 10.064,-11.65418 20.0647,-23.36301 30.59842,-35.55723 m 232.99744,46.01191 c -6.48773,-5.8248 -13.47467,-11.18973 -19.35586,-17.57331 -11.10288,-12.05139 -21.66462,-24.60824 -32.27286,-37.10641 -9.82309,-11.57312 -19.36304,-23.38651 -29.18009,-34.96487 -1.03082,-1.2157 -3.09112,-1.55854 -4.6738,-2.30634 -0.4237,0.52048 -0.84744,1.04095 -1.27114,1.56146 13.3688,16.51898 26.73764,33.03796 40.10644,49.55695 -0.29303,0.27395 -0.58609,0.54791 -0.87912,0.82187 -16.95419,-13.20755 -33.90835,-26.4151 -50.86255,-39.62265 -0.3837,0.29254 -0.76739,0.58508 -1.15109,0.87762 0.84467,1.57535 1.354,3.51416 2.59546,4.65939 4.08499,3.76841 8.35718,7.34668 12.69812,10.82239 13.21243,10.57877 26.51709,21.0423 39.73654,31.61237 16.0007,12.79397 31.95108,25.65094 48.66931,39.07995 -6.72442,5.80188 -12.80111,10.99887 -18.82739,16.25357 -14.84229,12.94202 -31.12054,23.92792 -48.80188,32.36225 -13.69113,6.53088 -28.20517,11.44134 -42.58762,16.39178 -17.71594,6.09778 -36.13028,8.9964 -54.82379,10.05042 -5.07251,0.28601 -5.42608,0.66412 -4.53586,5.83215 39.5228,-1.95532 105.22266,-13.89984 164.43482,-68.62042 50.05115,-46.25464 78.10242,-103.92002 84.67871,-171.9664 -1.90399,0 -3.65656,0 -4.73096,0 -2.01995,10.84735 -3.91571,21.36471 -5.94427,31.85638 -5.7818,29.90375 -17.11102,57.66852 -33.86536,82.98493 -8.3161,12.56595 -18.19903,24.12103 -27.7099,35.86062 -5.80725,7.168 -6.09473,6.93509 -11.44586,1.5763 m 51.03845,-294.07387 c 15.30634,30.06665 24.06043,62.02684 27.35486,95.53059 1.57355,0 2.90576,0.0203 4.23651,-0.0152 0.30878,-0.008 0.61255,-0.20615 1.04053,-0.36087 C 627.46133,241.3083 601.87332,185.04188 554.87942,139.22674 507.85657,93.383381 450.9617,69.024628 385.62189,63.788254 c -0.52555,5.373531 -0.19059,5.777172 4.46166,6.095238 4.75074,0.324798 9.6099,0.158764 14.22721,1.130886 12.78982,2.692779 25.54425,5.613518 38.19232,8.906517 21.60562,5.625145 41.90897,14.492622 60.65683,26.572935 11.68781,7.53114 23.0047,15.68918 34.07068,24.11412 6.24033,4.75099 11.63431,10.61374 17.76578,16.30643 -16.16727,13.65666 -31.64408,26.97861 -47.40519,39.95523 -10.2908,8.47275 -21.07367,16.34503 -31.48715,24.67256 -8.03622,6.42642 -15.89483,13.08008 -23.67212,19.81772 -0.85632,0.7418 -0.6571,2.70203 -0.94742,4.09714 0.40625,0.10278 0.8125,0.20556 1.21875,0.30835 17.06562,-13.48627 34.1312,-26.97252 51.19681,-40.45879 0.43775,0.46617 0.87552,0.93234 1.31327,1.39851 -13.68677,16.89052 -27.37351,33.78104 -41.06028,50.67156 2.37195,0.34425 4.74396,0.28946 5.80317,-0.91748 7.10934,-8.10068 14.04806,-16.35837 20.83532,-24.73271 10.67072,-13.16588 20.59671,-26.98825 31.92447,-39.55321 10.59046,-11.74712 22.59458,-22.21974 34.05344,-33.32791 17.71796,18.70636 32.17773,39.39395 44.46722,62.46324 M 269.54754,433.85246 c -13.87791,10.68927 -27.75584,21.37854 -41.63375,32.06781 -0.41977,-0.45493 -0.83956,-0.90985 -1.25933,-1.36475 3.8498,-4.72699 7.64302,-9.50143 11.56073,-14.17142 9.04607,-10.78305 18.18244,-21.49056 27.17716,-32.31597 0.712,-0.85691 0.61107,-2.38929 0.88795,-3.60776 -1.28415,0.22299 -3.00909,-0.003 -3.77427,0.74859 -2.92817,2.87571 -5.59562,6.02454 -8.27288,9.14646 -5.97349,6.96554 -11.93429,13.94278 -17.82767,20.97604 -9.75369,11.64044 -19.04466,23.70038 -29.29383,34.88413 -8.83782,9.6438 -18.73496,18.31735 -28.17723,27.40579 -0.91211,0.8779 -1.9199,1.65637 -3.01189,2.59112 -21.5309,-21.25009 -38.14368,-45.52734 -50.67906,-72.58969 -12.45038,-26.87884 -19.99634,-55.1405 -22.66864,-84.56863 -1.81387,0 -3.430551,0 -5.055391,0 3.202881,47.2135 24.960441,124.03458 97.865281,183.30453 43.7195,35.54297 94.31318,54.24469 150.72026,57.38526 0.082,-3.09516 0.73321,-5.57129 -3.54453,-5.97943 -10.36129,-0.98865 -20.70123,-2.33466 -30.98971,-3.92505 -21.45246,-3.31604 -41.77503,-10.43787 -61.36077,-19.54529 -17.62791,-8.19702 -34.12767,-18.35126 -49.04321,-30.9339 -7.85258,-6.62439 -15.71673,-13.23505 -23.98465,-20.19626 10.13304,-8.64319 19.26073,-16.83038 28.81543,-24.48453 14.31786,-11.46981 28.99764,-22.4866 43.40402,-33.84759 9.60253,-7.57263 19.05313,-15.34213 28.424,-23.19971 1.39265,-1.16778 1.97131,-3.30633 2.92654,-4.99576 -0.39291,-0.30291 -0.78584,-0.60583 -1.17877,-0.90875 -3.14079,2.56934 -6.2816,5.13867 -10.02579,8.12476 M 526.54779,263.82844 c 12.92233,-11.69839 25.84463,-23.39677 38.76694,-35.09517 -6.66108,0.86513 -12.7436,2.58797 -18.77478,4.4747 -34.7631,10.87491 -69.50223,21.82653 -104.2862,32.63408 -3.72433,1.15714 -6.16498,3.06802 -7.42068,6.82096 -1.57541,4.70852 -3.49445,9.30203 -5.74387,15.20037 31.34171,-11.54202 61.52585,-22.65777 92.69171,-34.13505 -22.67251,16.29344 -44.45965,31.9506 -66.31704,47.65828 7.419,0.86105 14.3898,1.77789 21.38668,2.40231 1.64011,0.14636 3.83197,-0.16327 4.98597,-1.16568 14.74835,-12.8114 29.35391,-25.78717 44.71127,-38.7948 M 286.59601,281.9156 c 4.73117,1.74176 9.46234,3.48349 14.80767,5.45132 -2.45758,-6.42737 -4.41778,-11.99612 -6.77093,-17.39361 -0.5795,-1.32919 -2.28168,-2.58631 -3.73328,-3.05625 -28.06926,-9.08653 -56.17511,-18.06015 -84.27995,-27.03657 -13.66138,-4.36334 -27.33609,-8.685 -41.00476,-13.02551 -0.28143,0.36224 -0.56287,0.72447 -0.84428,1.08671 1.68431,1.34395 3.42895,2.61945 5.04364,4.04242 17.00338,14.98431 33.99874,29.97781 50.96936,44.99924 9.35376,8.27942 18.61442,16.66476 28.03285,24.86947 1.23755,1.07807 3.21657,2.02646 4.76315,1.90464 7.0704,-0.55698 14.1091,-1.51673 21.86913,-2.41385 -21.65596,-15.78598 -42.90459,-31.27506 -64.1532,-46.7641 0.14924,-0.22136 0.29848,-0.4427 0.44772,-0.66406 24.68222,9.30807 49.36443,18.61615 74.85288,28.00015 m 57.23132,118.9682 c 11.3053,3.54755 22.79489,3.9191 34.41745,1.99649 18.00253,-2.97806 32.83353,-11.83832 43.45642,-26.33698 12.79099,-17.45776 17.47137,-37.22119 12.52292,-58.81433 -4.87018,-21.25143 -16.19302,-37.77557 -35.76996,-47.71887 -15.30905,-7.7756 -31.67752,-9.96448 -48.6199,-6.12787 -20.34629,4.60742 -36.06677,15.63083 -46.11454,34.05518 -7.28579,13.35989 -10.509,27.54806 -8.64935,42.97592 1.82172,15.11319 7.27261,28.34509 17.3552,39.69299 8.39724,9.45102 18.99054,15.60074 31.40176,20.27747 M 226.16827,84.418827 c 5.17426,-5.30413 5.31511,-11.560653 0.37544,-16.677356 -3.68867,-3.820881 -12.55033,-3.913125 -16.51518,-0.171902 -4.09778,3.866657 -4.74043,11.294998 -1.32664,15.334686 5.12703,6.067047 10.91586,6.765465 17.46638,1.514572 m -115.7823,94.460033 c -5.51523,-2.82711 -12.662831,0.37765 -14.915731,5.17338 -2.62795,5.59412 -1.06622,12.22307 4.00925,15.581 4.301701,2.84603 11.898211,1.35565 15.508901,-3.04275 4.22195,-5.143 2.62333,-12.59336 -4.60242,-17.71163 m 100.46239,413.09869 c 2.94802,0.63361 5.86932,1.48651 8.85029,1.84979 4.5986,0.56043 7.52909,-2.44812 9.32431,-5.94366 2.10829,-4.10504 1.69274,-8.40424 -1.49429,-12.22577 -4.32742,-5.18909 -12.25482,-5.495 -16.82272,-1.73651 -5.34224,4.39563 -5.48294,11.47595 0.14241,18.05615 M 637.18191,186.01661 c -2.58905,-2.47021 -4.84478,-5.50499 -7.84625,-7.27656 -4.35681,-2.5716 -8.71765,-0.59464 -11.89239,2.60846 -3.05371,3.08105 -4.46515,7.17742 -2.63752,11.61653 1.81885,4.41784 4.32727,7.92453 9.87909,7.95407 8.81116,0.0469 12.5177,-3.99814 12.49707,-14.9025 M 502.11862,70.456875 c -2.57785,3.775742 -1.99558,7.527786 0.0492,11.292656 2.54105,4.67852 8.2797,7.064171 13.21579,5.461227 4.82654,-1.567367 9.5402,-7.516799 8.69397,-11.530433 -0.98052,-4.650646 -2.87921,-9.379967 -7.87829,-10.565476 -5.17444,-1.227085 -10.51239,-0.636486 -14.08069,5.342026 M 631.98825,477.61381 c 0.81488,-0.82465 1.57037,-1.72015 2.45477,-2.46179 4.01898,-3.37009 3.80615,-10.61936 -0.0667,-15.52771 -3.36957,-4.27051 -10.30017,-4.85681 -14.90234,-1.51727 -5.10486,3.70431 -6.79578,9.96783 -4.11432,15.23999 2.57727,5.0672 9.39203,7.01229 16.6286,4.26678 M 96.076919,474.20335 c 0.34513,0.3591 0.68133,0.72729 1.03675,1.0759 3.868041,3.79364 8.906951,4.91855 13.333641,2.78341 4.69736,-2.26568 7.26624,-5.83395 6.78375,-11.33911 -0.37296,-4.25546 -3.89581,-8.14465 -8.62522,-10.05108 -4.71739,-1.90156 -8.55749,-0.0936 -11.391191,2.94973 -3.67826,3.95035 -4.24404,8.9877 -1.13773,14.58115 M 503.14364,575.46784 c -4.14898,5.95618 -2.21923,12.8277 1.30097,16.03504 3.68924,3.36139 11.56125,3.15802 15.37518,0.31738 4.43088,-3.30023 4.78717,-12.9115 1.30795,-16.49731 -4.41214,-4.54737 -10.85717,-6.41907 -17.9841,0.14489 M 167.23256,515.31892 c -4.32042,4.02057 -8.64086,8.04114 -12.94908,12.05035 0.80298,1.1836 1.56497,2.30683 2.38856,3.52075 4.99364,-4.53448 9.74413,-8.8482 14.84741,-13.48229 -1.4423,-0.97397 -2.57199,-1.73685 -4.28689,-2.08881 M 640.80411,394.88145 c 3.36077,0.71716 6.72155,1.4343 11.62298,2.48022 -1.45788,-2.41778 -1.87115,-4.09451 -2.73962,-4.37832 -4.72583,-1.54444 -9.52759,-2.90689 -14.37805,-3.99942 -2.57752,-0.5806 -4.56769,0.26172 -3.9784,3.15133 3.1275,0.97907 5.87482,1.83912 9.47309,2.74619 m -7.83576,-126.03146 c 6.06903,-1.45911 12.13806,-2.91819 18.18939,-4.37302 0.23291,-3.57364 -1.84893,-4.09746 -4.46264,-3.4032 -5.18555,1.37738 -10.31708,2.9581 -15.50153,4.46365 0.39514,1.05863 0.73218,1.96149 1.77478,3.31257 M 99.881959,267.73188 c -0.54731,-0.95389 -0.91396,-2.54056 -1.67183,-2.75689 -4.28285,-1.22269 -8.86273,-1.61606 -12.94342,-3.27247 -3.617335,-1.4683 -4.435626,-0.20954 -5.021002,2.63089 5.949712,1.6027 11.620702,3.15912 17.317722,4.61359 0.48803,0.1246 1.14908,-0.4285 2.31853,-1.21512 M 567.73611,133.85751 c -2.31311,2.12962 -4.62628,4.25925 -7.16675,6.5982 1.31727,1.42243 2.20502,2.38111 3.04377,3.28678 4.76831,-4.49573 9.17889,-8.6542 13.79272,-13.00429 -0.90723,-0.95946 -1.77453,-1.8767 -2.51788,-2.6628 -2.29749,1.81734 -4.47528,3.54001 -7.15186,5.78211 m -2.59167,382.43214 c -0.97565,-0.15167 -1.9513,-0.30331 -2.92694,-0.45498 0.0486,1.23678 -0.41156,2.9786 0.23095,3.62564 3.33771,3.36136 6.84681,6.58212 10.55829,9.52078 0.87299,0.69116 2.75952,0.10223 4.17969,0.10223 0.0948,-0.47424 0.1897,-0.94848 0.28455,-1.42273 -3.94562,-3.60937 -7.8913,-7.21869 -12.32654,-11.37094 M 96.179349,393.4149 c 1.33974,-0.33118 2.67949,-0.66236 4.420531,-1.09275 -0.889631,-1.35995 -1.754751,-3.36251 -2.208471,-3.27325 -6.09512,1.19864 -12.13287,2.68906 -18.263676,4.12555 0.834702,2.83926 1.435116,4.56558 5.001366,2.88873 3.1013,-1.45819 6.85495,-1.52896 11.05025,-2.64828 M 440.70117,51.891716 c -0.25955,-0.997711 -0.5191,-1.995422 -0.77866,-2.993133 -1.16394,0.804962 -3.05215,1.393196 -3.36889,2.451671 -1.52771,5.105309 -2.63214,10.337277 -4.27506,17.129669 2.28675,-1.098381 4.41184,-1.449699 4.69538,-2.368991 1.36325,-4.420205 2.2293,-8.993756 3.72723,-14.219216 M 292.48468,48.915318 c -1.08603,0.09192 -2.17206,0.18383 -3.5195,0.29787 1.47925,5.432568 2.66745,10.579541 4.36505,15.55262 0.50842,1.489399 2.43927,2.493233 3.71841,3.719525 0.35254,-0.362278 0.70508,-0.724556 1.05765,-1.086834 -1.6539,-5.983753 -3.30777,-11.96751 -5.62161,-18.483181 m 3.7402,546.790682 c 0.57092,-1.44799 1.14188,-2.89605 1.74777,-4.43274 -1.16842,-0.34906 -2.32241,-0.69378 -3.86926,-1.15588 -1.76935,6.43567 -3.52847,12.83423 -5.2876,19.23273 0.42054,0.33569 0.84107,0.67145 1.2616,1.00714 1.03797,-0.73407 2.68207,-1.26563 3.00687,-2.23792 1.26535,-3.78802 2.11242,-7.71569 3.14062,-12.41333 m 141.01572,-1.44574 c 0.52804,-4.41955 -1.68512,-4.38128 -4.84348,-2.9071 2.89023,6.09229 2.59711,13.58685 7.1348,18.93793 0.68079,-0.23487 1.3616,-0.46967 2.04239,-0.70447 -1.27756,-4.89355 -2.55509,-9.78717 -4.33371,-15.32636 z"
         id="path1"
         style="fill:#000000;fill-opacity:0" /><path
         fill="#fefefe"
         opacity="1"
         stroke="none"
         d="m 31.196436,332.12733 c 13.324234,-1.58426 26.648344,-2.91974 39.97274,-4.25238 13.344863,-1.33472 26.691323,-2.65369 40.034674,-4.00333 13.01808,-1.31674 26.03445,-2.65066 39.04915,-4.00036 15.93352,-1.65247 31.86075,-3.36624 47.79776,-4.98404 13.67398,-1.38813 27.35666,-2.69135 41.03775,-4.00849 14.01477,-1.34921 28.03302,-2.66229 42.04822,-4.00708 4.55931,-0.43747 9.11382,-0.92495 13.99199,-1.42236 -1.60132,6.42337 -3.02701,12.14218 -4.65234,18.66187 -31.92317,2.72146 -64.39344,5.48959 -98.38617,8.38748 3.70981,0.61367 6.00743,1.14175 8.33389,1.35449 15.01524,1.37314 30.0345,2.70386 45.05713,3.9939 8.50195,0.7301 17.01222,1.36419 25.51993,2.02633 4.5858,0.35691 9.22992,0.35651 13.74243,1.13089 3.21918,0.55246 6.96567,0.52298 6.80225,6.20114 -0.12268,4.26181 2.22763,8.59479 3.55581,13.1677 -11.77646,-1.16669 -23.5469,-2.25601 -35.29901,-3.51642 -14.77704,-1.58484 -29.52876,-3.40921 -44.31094,-4.94177 -11.24443,-1.16574 -22.53632,-1.87854 -33.77637,-3.08026 -13.94557,-1.49103 -27.84667,-3.39707 -41.79106,-4.90046 -11.0696,-1.19345 -22.18935,-1.91964 -33.26121,-3.09472 -10.867031,-1.15335 -21.692041,-2.69843 -32.553977,-3.90531 -7.489696,-0.83221 -15.014114,-1.34738 -22.516979,-2.06714 -6.505169,-0.62411 -13.001855,-1.33667 -19.948979,-1.99993 -0.446689,0.0102 -0.446689,-0.48975 -0.446689,-0.73975 z"
         id="path2" /><path
         fill="#fefefe"
         opacity="1"
         stroke="none"
         d="m 699.19644,332.62733 c -11.66528,1.56873 -23.32642,2.9256 -34.99744,4.19183 -6.9956,0.75901 -14.01342,1.31278 -21.00903,2.07166 -11.67548,1.26651 -23.33264,2.70416 -35.01361,3.91446 -7.98566,0.82736 -16.00934,1.2843 -23.99671,2.09707 -12.01599,1.22266 -24.01177,2.64148 -36.02239,3.91871 -6.99588,0.74398 -14.00937,1.3225 -21.00516,2.0675 -12.01282,1.27924 -24.0127,2.68185 -36.02838,3.93268 -7.49552,0.78024 -15.02045,1.28082 -22.51343,2.08215 -8.1008,0.8663 -16.17172,2.01184 -24.27289,2.87421 -2.60834,0.27768 -5.27118,0.0435 -8.32495,0.0435 1.1803,-5.7294 2.01184,-11.13758 3.56927,-16.32791 0.37305,-1.2432 3.10697,-2.361 4.8479,-2.52006 16.32569,-1.49148 32.66724,-2.81744 49.01288,-4.07919 14.0839,-1.08719 28.17942,-2.02383 42.26801,-3.05127 0.52899,-0.0386 1.03943,-0.33139 1.44894,-1.40918 -32.48211,-2.80575 -64.96423,-5.61148 -97.17828,-8.39407 -1.63443,-6.45618 -3.16385,-12.49756 -4.71021,-18.60587 14.28101,1.15067 28.54697,2.19953 42.79245,3.47712 13.35715,1.19796 26.69391,2.62478 40.0372,3.97506 13.00898,1.31647 26.01477,2.66404 39.02204,3.9971 13.00683,1.33304 26.01385,2.66462 39.02069,3.99774 13.00055,1.33252 26.00031,2.67249 39.00165,3.99759 13.16748,1.34205 26.34405,2.59989 39.50183,4.03028 7.91357,0.86029 15.79883,1.97983 24.12323,2.97586 0.42639,-0.007 0.42639,0.49303 0.42639,0.74303 z"
         id="path3" /><path
         fill="#fdfdfd"
         opacity="1"
         stroke="none"
         d="m 365.94644,8.8773312 c 1.5693,12.0052788 2.9122,24.0080318 4.19879,36.0168148 0.73123,6.825031 1.32315,13.665039 2.06143,20.489254 1.28388,11.867214 2.68827,23.721577 3.93387,35.59268 0.7872,7.50246 1.25794,15.03878 2.0853,22.53622 1.17923,10.6862 2.59741,21.34582 3.83249,32.02618 0.78827,6.8166 1.33123,13.66218 2.1611,20.47323 1.20038,9.85237 2.57355,19.68358 3.8493,29.52689 1.04599,8.07089 2.16599,16.13431 3.05692,24.22264 1.12756,10.2365 2.06189,20.49437 3.05774,30.74512 0.0624,0.64203 -0.0642,1.30243 -0.12821,2.38014 -6.33947,-1.52243 -12.47576,-2.99606 -19.01303,-4.56601 -3.08737,-31.59636 -6.18451,-63.29263 -9.39273,-96.12588 -3.47784,32.85774 -6.8374,64.59787 -10.16147,96.00267 -6.77728,1.83836 -12.91604,3.50352 -19.13458,5.19032 1.94431,-17.55664 3.83579,-35.18961 5.86777,-52.80638 1.56808,-13.59494 3.37488,-27.16226 4.96173,-40.75514 1.7409,-14.91272 3.36301,-29.83941 5.01578,-44.76233 2.01388,-18.18341 4.00827,-36.368998 6.00628,-54.554171 1.33676,-12.166641 2.62253,-24.339069 4.01224,-36.499645 0.92545,-8.098109 1.99374,-16.179892 2.98868,-24.7007938 -0.009,-0.431809 0.4906,-0.431809 0.7406,-0.431809 z"
         id="path4" /><path
         fill="#fdfdfd"
         opacity="1"
         stroke="none"
         d="m 365.44644,652.87733 c -1.56415,-10.99194 -2.94702,-21.97632 -4.16827,-32.97858 -0.8129,-7.32306 -1.31604,-14.68017 -2.09873,-22.00702 -1.24811,-11.68402 -2.65646,-23.35083 -3.91339,-35.03393 -0.77045,-7.16126 -1.29355,-14.34955 -2.09033,-21.50763 -1.24372,-11.17358 -2.66556,-22.32724 -3.93631,-33.49796 -1.0705,-9.40991 -1.90741,-18.84771 -3.07571,-28.24484 -1.46479,-11.78195 -3.21396,-23.52832 -4.74265,-35.3027 -1.15454,-8.89301 -2.14114,-17.80768 -3.23105,-26.70926 -0.58639,-4.78937 -1.23282,-9.57135 -1.84039,-14.26581 5.76141,1.53516 11.47088,2.87311 17.02737,4.68121 1.20996,0.39374 2.46646,2.37818 2.68384,3.78699 0.92038,5.96567 1.47229,11.98889 2.13058,17.99417 1.33429,12.17194 2.74009,24.33698 3.94297,36.52204 0.8374,8.48333 1.34527,16.99874 2.08832,25.49212 0.22216,2.53961 0.74118,5.05326 1.6188,7.54056 3.10739,-30.41794 6.21475,-60.83588 9.27222,-90.76526 6.64938,-1.81717 12.69598,-3.46963 19.19366,-5.24539 -0.78491,7.6745 -1.45383,15.39154 -2.39117,23.07584 -1.1221,9.19894 -2.49442,18.36709 -3.71988,27.55374 -1.31211,9.83603 -2.62845,19.67196 -3.84888,29.51962 -0.80334,6.48221 -1.38632,12.99152 -2.16397,19.4772 -1.28021,10.67722 -2.70743,21.33707 -3.93869,32.01975 -0.80545,6.98804 -1.29303,14.01233 -2.06805,21.00433 -1.25693,11.33985 -2.7132,22.65784 -3.93055,34.00165 -0.82058,7.64667 -1.23123,15.33777 -2.08279,22.98035 -1.19022,10.6817 -2.66742,21.33123 -3.91095,32.00738 -0.26819,2.30231 -0.0645,4.65967 -0.0671,7.44654 0.0111,0.45489 -0.4889,0.45489 -0.7389,0.45489 z"
         id="path5" /><path
         fill="#fdfdfe"
         opacity="1"
         stroke="none"
         d="m 330.45761,243.63276 c -8.36212,-11.02653 -16.54697,-21.72911 -24.53775,-32.57463 -6.71793,-9.1179 -13.21243,-18.40044 -19.79555,-27.61745 -0.38589,-0.54028 -0.6794,-1.14653 -1.0159,-1.72207 -0.39474,0.23712 -0.78947,0.47423 -1.18422,0.71133 1.25002,3.4785 2.46775,6.969 3.75525,10.43357 8.82572,23.7492 17.66385,47.4938 26.50733,71.23641 0.50347,1.35178 1.08706,2.6738 1.6362,4.00855 1.54171,3.7475 2.49347,6.98315 -2.01322,9.94034 -2.96679,1.94672 -4.93927,5.40878 -7.82416,8.73016 -19.40304,-50.01852 -32.7655,-100.91478 -48.27948,-151.12961 0.38906,-0.24235 0.77813,-0.48469 1.16718,-0.72704 4.60075,4.98928 9.30813,9.88531 13.77487,14.99181 5.38658,6.15808 10.53149,12.52681 15.84723,18.74778 12.02917,14.07766 24.08707,28.13086 36.16153,42.16969 2.67792,3.11357 5.63605,6.00024 8.14252,9.24092 1.1904,1.53912 2.36203,3.70628 2.26117,5.51759 -0.32572,5.85025 -1.24585,11.66742 -1.93692,17.49735 -0.9339,-0.12511 -0.30985,4.39052 -2.66608,0.5453 z"
         id="path6" /><path
         fill="#fdfdfd"
         opacity="1"
         stroke="none"
         d="m 445.64007,183.08399 c -15.5177,20.88927 -31.0354,41.77852 -47.10202,63.40668 -1.11764,-7.95267 -2.13732,-14.90405 -3.01495,-21.87332 -0.0992,-0.78806 0.40204,-1.85136 0.96182,-2.49306 9.60489,-11.00998 19.33167,-21.91412 28.8917,-32.9626 11.90182,-13.75494 23.6387,-27.65255 35.5252,-41.42084 4.0784,-4.72402 8.39289,-9.2442 12.59952,-13.85751 0.38385,0.18783 0.7677,0.37566 1.15155,0.56349 -16.2623,50.80884 -32.52456,101.61769 -48.5386,151.65102 -4.00025,-3.58441 -7.28763,-6.92868 -10.99109,-9.72113 -2.90851,-2.19312 -1.20252,-4.32755 -0.47809,-6.33856 7.94205,-22.04741 15.9574,-44.06867 24.03418,-66.06714 2.37454,-6.46744 5.00619,-12.8405 7.83987,-19.7359 0.35978,-1.0186 0.39972,-1.55814 0.43967,-2.09766 -0.43958,0.31552 -0.87915,0.63103 -1.31876,0.94653 z"
         id="path7" /><path
         fill="#fdfdfd"
         opacity="1"
         stroke="none"
         d="m 316.94775,459.62489 c -10.2807,11.93988 -20.2814,23.64871 -30.3454,35.30289 -6.96756,8.06851 -14.00409,16.07775 -21.04882,24.07913 -2.25417,2.5603 -4.63331,5.01056 -8.01798,7.17175 15.51099,-48.78104 31.022,-97.56207 46.53299,-146.34311 0.65918,-0.10156 1.31839,-0.20315 1.97757,-0.30472 3.35367,3.58649 7.15631,6.87311 9.84732,10.90216 1.1282,1.68921 0.50607,5.17774 -0.34845,7.4639 -9.03448,24.17011 -18.25897,48.26935 -27.4892,72.36585 -0.89718,2.34225 -2.18313,4.53561 -2.29591,7.36123 15.27263,-20.45742 30.54524,-40.91485 46.31264,-62.035 1.09475,7.53732 2.51928,14.43787 2.85974,21.39151 0.10757,2.1965 -2.47433,4.70993 -4.19098,6.77429 -4.40408,5.29624 -9.01331,10.42191 -13.79352,15.87012 z"
         id="path8" /><path
         fill="#fdfdfe"
         opacity="1"
         stroke="none"
         d="m 471.56921,524.59474 c -8.85431,-10.108 -17.68878,-20.23346 -26.57,-30.31772 -5.65107,-6.41654 -11.46863,-12.68851 -17.03882,-19.17365 -9.06516,-10.5541 -17.22193,-22.03289 -27.22745,-31.58679 -7.32822,-6.99746 -2.73071,-14.03717 -3.27219,-21.05502 -0.17895,-2.31912 0.72782,-4.72202 1.26456,-7.81503 15.87384,21.1954 31.51895,42.08541 47.16409,62.97543 0.14408,-0.0601 0.28815,-0.12018 0.43222,-0.18027 -11.05035,-28.62317 -22.10071,-57.24631 -32.86834,-85.13711 4.03552,-4.41199 7.55084,-8.25525 12.02145,-13.14292 17.97101,47.63352 32.36688,95.73447 46.57751,144.43942 -0.25915,0.72541 -0.37109,0.85956 -0.48303,0.99366 z"
         id="path9" /><path
         fill="#fbfcfc"
         opacity="1"
         stroke="none"
         d="m 169.70532,143.88442 c 1.16342,-0.49713 2.58647,-0.71839 3.45152,-1.53254 14.1684,-13.33471 28.9661,-25.86508 45.41167,-36.35847 26.96326,-17.204366 55.81927,-29.868551 87.29337,-36.081388 13.04248,-2.574524 26.19747,-4.578838 39.52688,-6.881432 -0.60919,6.819542 -0.70639,6.126351 -6.87399,6.99128 -13.62079,1.910133 -27.28977,3.933845 -40.65265,7.114677 -18.34261,4.366196 -35.92879,11.235977 -52.72377,19.822151 -16.16856,8.265912 -31.49634,17.951402 -45.32323,29.825092 -7.72384,6.63276 -15.31209,13.42345 -22.94099,20.12502 7.0478,6.03988 13.41842,11.66112 19.96197,17.0733 13.32618,11.02211 26.73835,21.94039 40.12923,32.88411 8.46083,6.91466 16.97726,13.76155 25.41121,20.70871 5.30521,4.36995 10.33609,9.09235 15.82078,13.21681 2.76786,2.08141 2.3469,3.31076 0.21488,5.32621 -17.64395,-14.26677 -35.06804,-28.35576 -52.49211,-42.44474 -0.35214,0.32315 -0.7043,0.6463 -1.05644,0.96945 13.97622,17.54035 27.95243,35.08071 41.92865,52.62105 -0.15897,0.35594 -0.31795,0.71189 -0.47692,1.06783 -1.89734,-0.8465 -4.41058,-1.18407 -5.59608,-2.61878 -10.99816,-13.31016 -21.58414,-26.96252 -32.6507,-40.21412 -13.27502,-15.89614 -25.90205,-32.40523 -42.17274,-45.57524 -3.71527,-3.00727 -6.71187,-6.90241 -10.74314,-11.12648 -6.07512,6.99159 -12.07769,13.24829 -17.33223,20.0803 -11.52279,14.98207 -21.8675,30.79068 -29.96893,47.89922 -9.44087,19.93716 -16.95251,40.5833 -20.63587,62.44653 -1.45464,8.63422 -2.53736,17.33478 -4.19444,25.927 -0.23081,1.19672 -2.7926,1.94391 -5.067361,3.40946 0.82653,-19.32294 4.223261,-36.8085 9.315811,-53.9579 8.53955,-28.75734 21.6174,-55.37938 39.02898,-79.77622 5.95295,-8.34117 12.91741,-15.95921 19.39283,-23.9295 1.74838,-2.15199 3.39832,-4.384 4.72626,-6.94747 -0.36717,-0.36819 -0.71245,-0.0639 -0.71245,-0.0639 z"
         id="path10" /><path
         fill="#fbfbfb"
         opacity="1"
         stroke="none"
         d="m 550.45889,505.6349 c 5.09045,5.10635 5.37793,5.33926 11.18518,-1.82874 9.51087,-11.73959 19.3938,-23.29467 27.7099,-35.86062 16.75434,-25.31641 28.08356,-53.08118 33.86536,-82.98493 2.02856,-10.49167 3.92432,-21.00903 5.94427,-31.85638 1.0744,0 2.82697,0 4.73096,0 -6.57629,68.04638 -34.62756,125.71176 -84.67871,171.9664 -59.21216,54.72058 -124.91202,66.6651 -164.43482,68.62042 -0.89022,-5.16803 -0.53665,-5.54614 4.53586,-5.83215 18.69351,-1.05402 37.10785,-3.95264 54.82379,-10.05042 14.38245,-4.95044 28.89649,-9.8609 42.58762,-16.39178 17.68134,-8.43433 33.95959,-19.42023 48.80188,-32.36225 6.02628,-5.2547 12.10297,-10.45169 18.82739,-16.25357 -16.71823,-13.42901 -32.66861,-26.28598 -48.66931,-39.07995 -13.21945,-10.57007 -26.52411,-21.0336 -39.73654,-31.61237 -4.34094,-3.47571 -8.61313,-7.05398 -12.69812,-10.82239 -1.24146,-1.14523 -1.75079,-3.08404 -2.59546,-4.65939 0.3837,-0.29254 0.76739,-0.58508 1.15109,-0.87762 16.9542,13.20755 33.90836,26.4151 50.86255,39.62265 0.29303,-0.27396 0.58609,-0.54792 0.87912,-0.82187 -13.3688,-16.51899 -26.73764,-33.03797 -40.10644,-49.55695 0.4237,-0.52051 0.84744,-1.04098 1.27114,-1.56146 1.58268,0.7478 3.64298,1.09064 4.6738,2.30634 9.81705,11.57836 19.357,23.39175 29.18009,34.96487 10.60824,12.49817 21.16998,25.05502 32.27286,37.10641 5.88119,6.38358 12.86813,11.74851 19.61654,17.82575 m -45.8826,-39.14005 c 0.17197,0.43958 0.3439,0.87912 0.51584,1.3187 0.0867,-0.37821 0.17343,-0.75644 -0.51584,-1.3187 z"
         id="path11" /><path
         fill="#fcfcfc"
         opacity="1"
         stroke="none"
         d="m 601.20096,210.92573 c -12.25379,-22.68643 -26.71356,-43.37402 -44.43152,-62.08038 -11.45886,11.10817 -23.46298,21.58079 -34.05344,33.32791 -11.32776,12.56496 -21.25375,26.38733 -31.92447,39.55321 -6.78726,8.37434 -13.72598,16.63203 -20.83532,24.73271 -1.05921,1.20694 -3.43122,1.26173 -5.80317,0.91748 13.68677,-16.89052 27.37351,-33.78104 41.06028,-50.67156 -0.43775,-0.46617 -0.87552,-0.93234 -1.31327,-1.39851 -17.06561,13.48627 -34.13119,26.97252 -51.19681,40.45879 -0.40625,-0.10279 -0.8125,-0.20557 -1.21875,-0.30835 0.29032,-1.39511 0.0911,-3.35534 0.94742,-4.09714 7.77729,-6.73764 15.6359,-13.3913 23.67212,-19.81772 10.41348,-8.32753 21.19635,-16.19981 31.48715,-24.67256 15.76111,-12.97662 31.23792,-26.29857 47.40519,-39.95523 -6.13147,-5.69269 -11.52545,-11.55544 -17.76578,-16.30643 -11.06598,-8.42494 -22.38287,-16.58298 -34.07068,-24.11412 -18.74786,-12.080313 -39.05121,-20.94779 -60.65683,-26.572935 -12.64807,-3.292999 -25.4025,-6.213738 -38.19232,-8.906517 -4.61731,-0.972122 -9.47647,-0.806088 -14.22721,-1.130886 -4.65225,-0.318066 -4.98721,-0.721707 -4.46166,-6.095238 65.33981,5.236374 122.23468,29.595127 169.25753,75.438486 46.9939,45.81514 72.58191,102.08156 78.98914,167.23641 -0.42798,0.15472 -0.73175,0.35266 -1.04053,0.36087 -1.33075,0.0354 -2.66296,0.0152 -4.23651,0.0152 -3.29443,-33.50375 -12.04852,-65.46394 -27.39056,-95.91345 m -93.22284,-17.36903 c -0.46115,-0.15766 -0.9191,-0.32892 -1.39106,-0.44123 -0.0302,-0.007 -0.169,0.44185 -0.25729,0.67865 0.34424,0.0902 0.68845,0.18045 1.64835,-0.23742 z"
         id="path12" /><path
         fill="#fcfcfc"
         opacity="1"
         stroke="none"
         d="m 269.84924,433.64408 c 3.44249,-2.77771 6.5833,-5.34704 9.72409,-7.91638 0.39293,0.30292 0.78586,0.60584 1.17877,0.90875 -0.95523,1.68943 -1.53389,3.82798 -2.92654,4.99576 -9.37087,7.85758 -18.82147,15.62708 -28.424,23.19971 -14.40638,11.36099 -29.08616,22.37778 -43.40402,33.84759 -9.5547,7.65415 -18.68239,15.84134 -28.81543,24.48453 8.26792,6.96121 16.13207,13.57187 23.98465,20.19626 14.91554,12.58264 31.4153,22.73688 49.04321,30.9339 19.58574,9.10742 39.90831,16.22925 61.36077,19.54529 10.28848,1.59039 20.62842,2.9364 30.98971,3.92505 4.27774,0.40814 3.62653,2.88427 3.54453,5.97943 C 289.6979,590.6034 239.10422,571.90168 195.38472,536.35871 122.47988,477.08876 100.72232,400.26768 97.519439,353.05418 c 1.62484,0 3.241521,0 5.055391,0 2.6723,29.42813 10.21826,57.68979 22.66864,84.56863 12.53538,27.06235 29.14816,51.3396 50.67906,72.58969 1.09199,-0.93475 2.09978,-1.71322 3.01189,-2.59112 9.44227,-9.08844 19.33941,-17.76199 28.17723,-27.40579 10.24917,-11.18375 19.54014,-23.24369 29.29383,-34.88413 5.89338,-7.03326 11.85418,-14.0105 17.82767,-20.97604 2.67726,-3.12192 5.34471,-6.27075 8.27288,-9.14646 0.76518,-0.75146 2.49012,-0.5256 3.77427,-0.74859 -0.27688,1.21847 -0.17595,2.75085 -0.88795,3.60776 -8.99472,10.82541 -18.13109,21.53292 -27.17716,32.31597 -3.91771,4.66999 -7.71093,9.44443 -11.56073,14.17142 0.41977,0.4549 0.83956,0.90982 1.25933,1.36475 13.87791,-10.68927 27.75584,-21.37854 41.93545,-32.27619 m -44.63353,34.51435 c -0.44522,-0.11444 -0.88673,-0.26059 -1.33916,-0.31357 -0.0794,-0.009 -0.20454,0.37204 -0.30854,0.57291 0.38632,0.12643 0.77264,0.25283 1.6477,-0.25934 z"
         id="path13" /><path
         fill="#fdfdfd"
         opacity="1"
         stroke="none"
         d="m 526.19003,263.86523 c -14.9996,12.97084 -29.60516,25.94661 -44.35351,38.75801 -1.154,1.00241 -3.34586,1.31204 -4.98597,1.16568 -6.99688,-0.62442 -13.96768,-1.54126 -21.38668,-2.40231 21.85739,-15.70768 43.64453,-31.36484 66.31704,-47.65828 -31.16586,11.47728 -61.35,22.59303 -92.69171,34.13505 2.24942,-5.89834 4.16846,-10.49185 5.74387,-15.20037 1.2557,-3.75294 3.69635,-5.66382 7.42068,-6.82096 34.78397,-10.80755 69.5231,-21.75917 104.2862,-32.63408 6.03118,-1.88673 12.1137,-3.60957 18.77478,-4.4747 -12.92231,11.6984 -25.84461,23.39678 -39.1247,35.13196 z"
         id="path14" /><path
         fill="#fefefe"
         opacity="1"
         stroke="none"
         d="m 286.1929,281.87764 c -25.08534,-9.34604 -49.76755,-18.65412 -74.44977,-27.96219 -0.14924,0.22136 -0.29848,0.4427 -0.44772,0.66406 21.24861,15.48904 42.49724,30.97812 64.1532,46.7641 -7.76003,0.89712 -14.79873,1.85687 -21.86913,2.41385 -1.54658,0.12182 -3.5256,-0.82657 -4.76315,-1.90464 -9.41843,-8.20471 -18.67909,-16.59005 -28.03285,-24.86947 -16.97062,-15.02143 -33.96598,-30.01493 -50.96936,-44.99924 -1.61469,-1.42297 -3.35933,-2.69847 -5.04364,-4.04242 0.28141,-0.36224 0.56285,-0.72447 0.84428,-1.08671 13.66867,4.34051 27.34338,8.66217 41.00476,13.02551 28.10484,8.97642 56.21069,17.95004 84.27995,27.03657 1.4516,0.46994 3.15378,1.72706 3.73328,3.05625 2.35315,5.39749 4.31335,10.96624 6.77093,17.39361 -5.34533,-1.96783 -10.0765,-3.70956 -15.21078,-5.48928 z"
         id="path15" /><path
         fill="#fdfdfd"
         opacity="1"
         stroke="none"
         d="m 213.27069,406.95686 c 27.96365,-9.84528 55.92723,-19.69074 83.89108,-29.5354 1.48606,-0.52316 2.97452,-1.03955 5.35388,-1.8707 -2.73196,6.47589 -4.84741,12.42716 -7.79818,17.93063 -0.92005,1.71598 -4.00193,2.53199 -6.25806,3.23105 -16.55716,5.13028 -33.11446,10.26804 -49.75156,15.13028 -23.27014,6.80075 -46.60986,13.36341 -69.91815,20.03379 -1.04434,0.29882 -2.07208,0.65567 -4.40127,1.39764 7.37098,-6.63489 13.69168,-12.47473 20.18124,-18.12042 5.66721,-4.9303 11.52846,-9.63739 17.29712,-14.45127 10.04045,-8.37847 20.08436,-16.7528 30.10901,-25.15017 4.51799,-3.78458 9.26025,-7.35453 13.40228,-11.51776 3.24887,-3.26554 6.9276,-3.52582 10.87758,-3.05939 4.82541,0.56976 9.60673,1.51263 15.78964,2.51926 -20.13597,14.38375 -39.63699,28.31396 -59.62244,42.71749 -1.02683,0.63782 -1.56927,0.80231 -2.1117,0.9668 0.10522,0.2944 0.21044,0.58878 0.31568,0.88318 0.88128,-0.36835 1.76256,-0.7367 2.64385,-1.10501 z"
         id="path16" /><path
         fill="#fefefe"
         opacity="1"
         stroke="none"
         d="m 518.9906,406.32148 c -20.20517,-14.15542 -40.41037,-28.31082 -61.33783,-42.97229 6.63791,-0.91156 12.37958,-1.38217 17.97552,-2.55084 6.63608,-1.38586 9.81098,3.72452 13.78608,6.94006 14.0964,11.4029 27.98019,23.07157 41.83206,34.77271 8.15381,6.88779 16.08606,14.03754 24.13647,21.04822 3.43555,2.99188 6.91828,5.92953 11.18518,9.58123 -7.16327,-1.93438 -13.4339,-3.47137 -19.61047,-5.32211 -30.90271,-9.25958 -61.78381,-18.59143 -92.66364,-27.92715 -3.83496,-1.1594 -7.53732,-2.95297 -11.44375,-3.6316 -5.12412,-0.89016 -7.79218,-3.66217 -9.28287,-8.43261 -1.2164,-3.89264 -3.05215,-7.59171 -5.09543,-12.5456 8.91178,2.87745 16.70349,5.17652 24.34204,7.90448 16.1601,5.77137 32.2428,11.7595 48.35163,17.67408 5.40252,1.98367 10.78787,4.01394 16.66662,6.34167 1.02558,0.35892 1.56562,0.39911 2.10565,0.43927 -0.31573,-0.43985 -0.6315,-0.8797 -0.94726,-1.31952 z"
         id="path17" /><path
         fill="#fcfbfb"
         opacity="1"
         stroke="none"
         d="m 343.41598,400.86433 c -11.99987,-4.65726 -22.59317,-10.80698 -30.99041,-20.258 -10.08259,-11.3479 -15.53348,-24.5798 -17.3552,-39.69299 -1.85965,-15.42786 1.36356,-29.61603 8.64935,-42.97592 10.04777,-18.42435 25.76825,-29.44776 46.11454,-34.05518 16.94238,-3.83661 33.31085,-1.64773 48.6199,6.12787 19.57694,9.9433 30.89978,26.46744 35.76996,47.71887 4.94845,21.59314 0.26807,41.35657 -12.52292,58.81433 -10.62289,14.49866 -25.45389,23.35892 -43.45642,26.33698 -11.62256,1.92261 -23.11215,1.55106 -34.8288,-2.01596 m 64.3891,-117.01883 c -2.73138,-2.03943 -5.31421,-4.32553 -8.21969,-6.07599 -13.16599,-7.93201 -27.12244,-11.21619 -42.70771,-9.06228 -18.90603,2.61285 -33.5755,11.61849 -44.58432,26.70446 -10.75958,14.74442 -14.1763,31.58942 -10.92971,49.366 2.62429,14.36911 9.6777,26.58096 20.67978,36.58224 10.16784,9.24289 21.95019,14.97345 35.37606,16.35358 16.46018,1.69205 31.83289,-1.78213 45.7006,-11.70712 15.61697,-11.17691 24.70727,-26.33319 26.84139,-44.89337 2.56397,-22.29813 -4.80029,-41.6893 -22.1564,-57.26752 z"
         id="path18" /><path
         fill="#fdfdfd"
         opacity="1"
         stroke="none"
         d="m 225.88244,84.680722 c -6.26469,4.988998 -12.05352,4.29058 -17.18055,-1.776467 -3.41379,-4.039688 -2.77114,-11.468029 1.32664,-15.334686 3.96485,-3.741223 12.82651,-3.648979 16.51518,0.171902 4.93967,5.116703 4.79882,11.373226 -0.66127,16.939251 z"
         id="path19" /><path
         fill="#fefefe"
         opacity="1"
         stroke="none"
         d="m 110.79123,178.89862 c 6.82049,5.09851 8.41911,12.54887 4.19716,17.69187 -3.61069,4.3984 -11.2072,5.88878 -15.508901,3.04275 -5.07547,-3.35793 -6.6372,-9.98688 -4.00925,-15.581 2.2529,-4.79573 9.400501,-8.00049 15.320991,-5.15362 z"
         id="path20" /><path
         fill="#fdfdfd"
         opacity="1"
         stroke="none"
         d="m 210.54739,591.71668 c -5.32438,-6.31933 -5.18368,-13.39965 0.15856,-17.79528 4.5679,-3.75849 12.4953,-3.45258 16.82272,1.73651 3.18703,3.82153 3.60258,8.12073 1.49429,12.22577 -1.79522,3.49554 -4.72571,6.50409 -9.32431,5.94366 -2.98097,-0.36328 -5.90227,-1.21618 -9.15126,-2.11066 z"
         id="path21" /><path
         fill="#fefefe"
         opacity="1"
         stroke="none"
         d="m 637.18851,186.43626 c 0.014,10.48471 -3.69251,14.52972 -12.50367,14.48285 -5.55182,-0.0295 -8.06024,-3.53623 -9.87909,-7.95407 -1.82763,-4.43911 -0.41619,-8.53548 2.63752,-11.61653 3.17474,-3.2031 7.53558,-5.18006 11.89239,-2.60846 3.00147,1.77157 5.2572,4.80635 7.85285,7.69621 z"
         id="path22" /><path
         fill="#fdfdfd"
         opacity="1"
         stroke="none"
         d="m 502.18408,70.068112 c 3.50284,-5.589749 8.84079,-6.180348 14.01523,-4.953263 4.99908,1.185509 6.89777,5.91483 7.87829,10.565476 0.84623,4.013634 -3.86743,9.963066 -8.69397,11.530433 -4.93609,1.602944 -10.67474,-0.782707 -13.21579,-5.461227 -2.0448,-3.76487 -2.62707,-7.516914 0.0162,-11.681419 z"
         id="path23" /><path
         fill="#fefefe"
         opacity="1"
         stroke="none"
         d="m 631.6066,477.74458 c -6.85492,2.61474 -13.66968,0.66965 -16.24695,-4.39755 -2.68146,-5.27216 -0.99054,-11.53568 4.11432,-15.23999 4.60217,-3.33954 11.53277,-2.75324 14.90234,1.51727 3.87286,4.90835 4.08569,12.15762 0.0667,15.52771 -0.8844,0.74164 -1.63989,1.63714 -2.83642,2.59256 z"
         id="path24" /><path
         fill="#fefefe"
         opacity="1"
         stroke="none"
         d="m 95.773449,473.94307 c -2.80284,-5.33317 -2.23706,-10.37052 1.4412,-14.32087 2.833701,-3.04333 6.673801,-4.85129 11.391191,-2.94973 4.72941,1.90643 8.25226,5.79562 8.62522,10.05108 0.48249,5.50516 -2.08639,9.07343 -6.78375,11.33911 -4.42669,2.13514 -9.4656,1.01023 -13.333641,-2.78341 -0.35542,-0.34861 -0.69162,-0.7168 -1.34022,-1.33618 z"
         id="path25" /><path
         fill="#fdfdfd"
         opacity="1"
         stroke="none"
         d="m 503.40475,575.18324 c 6.86582,-6.27936 13.31085,-4.40766 17.72299,0.13971 3.47922,3.58581 3.12293,13.19708 -1.30795,16.49731 -3.81393,2.84064 -11.68594,3.04401 -15.37518,-0.31738 -3.5202,-3.20734 -5.44995,-10.07886 -1.03986,-16.31964 z"
         id="path26" /><path
         fill="#fafafa"
         opacity="1"
         stroke="none"
         d="m 170.01809,143.53598 c -0.31277,0.34844 0.0325,0.0442 0.0676,8e-4 -0.86111,0.0153 -2.13194,0.48777 -2.59546,0.0683 -4.47917,-4.05391 -8.82271,-8.2577 -13.47179,-12.67198 0.82146,-0.95372 1.70497,-1.97948 2.62231,-3.04451 4.3078,3.93073 8.49714,7.59418 12.45523,11.49246 0.84329,0.83055 0.84529,2.51529 0.92211,4.15496 z"
         id="path27" /><path
         fill="#fbfbfb"
         opacity="1"
         stroke="none"
         d="m 167.52516,515.11348 c 1.4223,0.5574 2.55199,1.32028 3.99429,2.29425 -5.10328,4.63409 -9.85377,8.94781 -14.84741,13.48229 -0.82359,-1.21392 -1.58558,-2.33715 -2.38856,-3.52075 4.30822,-4.00921 8.62866,-8.02978 13.24168,-12.25579 z"
         id="path28" /><path
         fill="#fbfbfb"
         opacity="1"
         stroke="none"
         d="m 640.37863,394.85792 c -3.17279,-0.88354 -5.92011,-1.74359 -9.04761,-2.72266 -0.58929,-2.88961 1.40088,-3.73193 3.9784,-3.15133 4.85046,1.09253 9.65222,2.45498 14.37805,3.99942 0.86847,0.28381 1.28174,1.96054 2.73962,4.37832 -4.90143,-1.04592 -8.26221,-1.76306 -12.04846,-2.50375 z"
         id="path29" /><path
         fill="#fafafa"
         opacity="1"
         stroke="none"
         d="m 632.61551,268.62586 c -0.68976,-1.12695 -1.0268,-2.02981 -1.42194,-3.08844 5.18445,-1.50555 10.31598,-3.08627 15.50153,-4.46365 2.61371,-0.69426 4.69555,-0.17044 4.46264,3.4032 -6.05133,1.45483 -12.12036,2.91391 -18.54223,4.14889 z"
         id="path30" /><path
         fill="#fbfbfb"
         opacity="1"
         stroke="none"
         d="m 99.587569,268.00605 c -0.87506,0.51245 -1.53611,1.06555 -2.02414,0.94095 -5.69702,-1.45447 -11.36801,-3.01089 -17.317722,-4.61359 0.585376,-2.84043 1.403667,-4.09919 5.021002,-2.63089 4.08069,1.65641 8.66057,2.04978 12.94342,3.27247 0.75787,0.21633 1.12452,1.803 1.37744,3.03106 z"
         id="path31" /><path
         fill="#fbfbfb"
         opacity="1"
         stroke="none"
         d="m 567.9855,133.5978 c 2.42719,-1.98239 4.60498,-3.70506 6.90247,-5.5224 0.74335,0.7861 1.61065,1.70334 2.51788,2.6628 -4.61383,4.35009 -9.02441,8.50856 -13.79272,13.00429 -0.83875,-0.90567 -1.7265,-1.86435 -3.04377,-3.28678 2.54047,-2.33895 4.85364,-4.46858 7.41614,-6.85791 z"
         id="path32" /><path
         fill="#fbfbfb"
         opacity="1"
         stroke="none"
         d="m 565.38919,516.56111 c 4.19049,3.88079 8.13617,7.49011 12.08179,11.09948 -0.0948,0.47425 -0.1897,0.94849 -0.28455,1.42273 -1.42017,0 -3.3067,0.58893 -4.17969,-0.10223 -3.71148,-2.93866 -7.22058,-6.15942 -10.55829,-9.52078 -0.64251,-0.64704 -0.18237,-2.38886 -0.23095,-3.62564 0.97564,0.15167 1.95129,0.30331 3.17169,0.72644 z"
         id="path33" /><path
         fill="#fafafa"
         opacity="1"
         stroke="none"
         d="m 95.814389,393.63264 c -3.83034,0.90158 -7.58399,0.97235 -10.68529,2.43054 -3.56625,1.67685 -4.166664,-0.0495 -5.001366,-2.88873 6.130806,-1.43649 12.168556,-2.92691 18.263676,-4.12555 0.45372,-0.0893 1.31884,1.9133 2.208471,3.27325 -1.741041,0.43039 -3.080791,0.76157 -4.785491,1.31049 z"
         id="path34" /><path
         fill="#f3f7f9"
         opacity="1"
         stroke="none"
         d="m 440.47348,52.244892 c -1.27024,4.872284 -2.13629,9.445835 -3.49954,13.86604 -0.28354,0.919292 -2.40863,1.27061 -4.69538,2.368991 1.64292,-6.792392 2.74735,-12.02436 4.27506,-17.129669 0.31674,-1.058475 2.20495,-1.646709 3.36889,-2.451671 0.25956,0.997711 0.51911,1.995422 0.55097,3.346309 z"
         id="path35" /><path
         fill="#fafafa"
         opacity="1"
         stroke="none"
         d="m 292.81466,49.181275 c 1.98386,6.249714 3.63773,12.233471 5.29163,18.217224 -0.35257,0.362278 -0.70511,0.724556 -1.05765,1.086834 -1.27914,-1.226292 -3.20999,-2.230126 -3.71841,-3.719525 -1.6976,-4.973079 -2.8858,-10.120052 -4.36505,-15.55262 1.34744,-0.11404 2.43347,-0.205955 3.84948,-0.03191 z"
         id="path36" /><path
         fill="#fafafa"
         opacity="1"
         stroke="none"
         d="m 296.21213,596.11695 c -1.01545,4.28669 -1.86252,8.21436 -3.12787,12.00238 -0.3248,0.97229 -1.9689,1.50385 -3.00687,2.23792 -0.42053,-0.33569 -0.84106,-0.67145 -1.2616,-1.00714 1.75913,-6.3985 3.51825,-12.79706 5.2876,-19.23273 1.54685,0.4621 2.70084,0.80682 3.86926,1.15588 -0.60589,1.53669 -1.17685,2.98475 -1.76052,4.84369 z"
         id="path37" /><path
         fill="#fafafa"
         opacity="1"
         stroke="none"
         d="m 437.49112,594.58302 c 1.5281,5.21643 2.80563,10.11005 4.08319,15.0036 -0.68079,0.2348 -1.3616,0.4696 -2.04239,0.70447 -4.53769,-5.35108 -4.24457,-12.84564 -7.1348,-18.93793 3.15836,-1.47418 5.37152,-1.51245 5.094,3.22986 z"
         id="path38" /><path
         fill="#fdfdfe"
         opacity="1"
         stroke="none"
         d="m 472.08566,524.00257 c 0.54535,0.67597 0.91013,1.54181 1.2749,2.40772 -0.27975,0.10467 -0.55951,0.20941 -0.83926,0.31415 -0.1788,-0.5412 -0.3576,-1.0824 -0.74423,-1.87665 -0.0959,-0.38715 0.016,-0.5213 0.30859,-0.84522 z"
         id="path39" /><path
         fill="#000000"
         opacity="1"
         stroke="none"
         d="m 445.78915,183.30821 c 0.29053,-0.53972 0.7301,-0.85523 1.16968,-1.17075 -0.0399,0.53952 -0.0799,1.07906 -0.40009,1.71541 -0.39364,-0.0423 -0.50707,-0.18137 -0.76959,-0.54466 z"
         id="path40"
         style="fill:#000000;fill-opacity:0" /><path
         fill="#000000"
         opacity="1"
         stroke="none"
         d="m 504.96426,466.58686 c 0.3013,0.47025 0.21457,0.84848 0.12787,1.22669 -0.17194,-0.43958 -0.34387,-0.87912 -0.12787,-1.22669 z"
         id="path41"
         style="fill:#000000;fill-opacity:0" /><path
         fill="#000000"
         opacity="1"
         stroke="none"
         d="m 507.67029,193.81074 c -0.65207,0.16383 -0.99628,0.0736 -1.34052,-0.0166 0.0883,-0.2368 0.22708,-0.68585 0.25729,-0.67865 0.47196,0.11231 0.92991,0.28357 1.08323,0.69527 z"
         id="path42"
         style="fill:#000000;fill-opacity:0" /><path
         fill="#000000"
         opacity="1"
         stroke="none"
         d="m 224.97134,468.47773 c -0.63069,0.19287 -1.01701,0.0665 -1.40333,-0.0599 0.104,-0.2009 0.22915,-0.58228 0.30854,-0.57294 0.45243,0.053 0.89394,0.19913 1.09479,0.63287 z"
         id="path43"
         style="fill:#000000;fill-opacity:0" /><path
         fill="#000000"
         opacity="1"
         stroke="none"
         d="m 213.07147,406.77555 c -0.68207,0.54962 -1.56335,0.91797 -2.44463,1.28632 -0.10524,-0.2944 -0.21046,-0.58878 -0.31568,-0.88318 0.54243,-0.16449 1.08487,-0.32898 1.88241,-0.70541 0.39633,-0.10095 0.53751,0.01 0.8779,0.30227 z"
         id="path44"
         style="fill:#000000;fill-opacity:0" /><path
         fill="#000000"
         opacity="1"
         stroke="none"
         d="m 518.76614,406.47041 c 0.54022,0.29089 0.85599,0.73074 1.17172,1.17059 -0.54003,-0.0402 -1.08007,-0.0804 -1.71701,-0.401 0.0423,-0.39386 0.18161,-0.50726 0.54529,-0.76959 z"
         id="path45"
         style="fill:#000000;fill-opacity:0" /><path
         fill="#000000"
         opacity="1"
         stroke="none"
         d="m 408.16739,283.87718 c 16.9938,15.54654 24.35806,34.93771 21.79409,57.23584 -2.13412,18.56018 -11.22442,33.71646 -26.84139,44.89337 -13.86771,9.92499 -29.24042,13.39917 -45.7006,11.70712 -13.42587,-1.38013 -25.20822,-7.11069 -35.37606,-16.35358 -11.00208,-10.00128 -18.05549,-22.21313 -20.67978,-36.58224 -3.24659,-17.77658 0.17013,-34.62158 10.92971,-49.366 11.00882,-15.08597 25.67829,-24.09161 44.58432,-26.70446 15.58527,-2.15391 29.54172,1.13027 42.70771,9.06228 2.90548,1.75046 5.48831,4.03656 8.582,6.10767 m -43.44727,-8.00208 c -32.5491,-0.6897 -57.43957,25.85547 -57.26807,56.91879 0.17362,31.44602 24.30143,56.68403 55.27311,58.07114 34.72894,1.55536 59.15435,-26.7868 60.53277,-55.26044 1.62738,-33.61578 -27.25375,-61.71795 -58.53781,-59.72949 z"
         id="path46"
         style="fill:#000000;fill-opacity:0" /><path
         fill="#fcfcfc"
         opacity="1"
         stroke="none"
         d="m 365.20825,275.87507 c 30.79593,-1.98843 59.67706,26.11374 58.04968,59.72952 -1.37842,28.47364 -25.80383,56.8158 -60.53277,55.26044 -30.97168,-1.38711 -55.09949,-26.62512 -55.27311,-58.07114 -0.1715,-31.06332 24.71897,-57.60849 57.7562,-56.91882 m 51.59012,62.92954 c -0.20123,-5.21335 0.0464,-10.49173 -0.69699,-15.62659 -1.55731,-10.7572 -6.68784,-20.02512 -14.57855,-27.26096 -10.79935,-9.90304 -23.66172,-14.77679 -38.66019,-14.1311 -16.48947,0.70984 -29.73023,7.87271 -39.27591,20.60434 -13.31217,17.75513 -13.2356,40.96307 -1.26969,58.77127 10.24982,15.25418 24.75464,23.65741 43.5019,23.69553 11.89789,0.0242 22.69388,-3.87799 31.79825,-11.23621 10.72345,-8.66678 17.40802,-20.0036 19.18118,-34.81628 z"
         id="path47" /><path
         fill="#000000"
         opacity="1"
         stroke="none"
         d="m 416.5256,339.16743 c -1.50039,14.44986 -8.18496,25.78668 -18.90841,34.45346 -9.10437,7.35822 -19.90036,11.26041 -31.79825,11.23621 -18.74726,-0.0381 -33.25208,-8.44135 -43.5019,-23.69553 -11.96591,-17.8082 -12.04248,-41.01614 1.26969,-58.77127 9.54568,-12.73163 22.78644,-19.8945 39.27591,-20.60434 14.99847,-0.64569 27.86084,4.22806 38.66019,14.1311 7.89071,7.23584 13.02124,16.50376 14.57855,27.26096 0.74341,5.13486 0.49576,10.41324 0.42422,15.98941 m -25.1774,20.40366 c 0.7688,0.44973 1.5376,0.8995 2.30643,1.34924 0.14423,-0.22351 0.28845,-0.44699 0.43271,-0.6705 -0.69946,-0.64337 -1.39893,-1.28678 -2.54627,-2.48056 -5.04315,-6.7703 -10.0863,-13.54062 -15.39437,-20.66657 10.27243,-1.27783 20.3782,-2.53491 30.48394,-3.79199 0.0542,-0.22812 0.1084,-0.45624 0.16263,-0.68436 -10.11764,-1.01352 -20.23529,-2.02703 -31.28604,-3.134 3.19049,-4.39532 5.98514,-8.45416 9.00073,-12.34164 3.09629,-3.9914 6.40845,-7.81534 9.62613,-11.71259 -0.28274,-0.28531 -0.56546,-0.57062 -0.84817,-0.85589 -7.92389,6.01391 -15.84775,12.02783 -24.07834,18.27456 -1.2923,-10.16855 -2.53394,-19.93854 -3.77558,-29.70853 -0.29602,0.0516 -0.59204,0.10328 -0.88809,0.15491 -1.18411,9.73938 -2.36825,19.47876 -3.5328,29.05704 -7.5661,-5.51862 -14.88788,-10.85907 -22.60559,-16.66434 -0.62629,-0.25796 -1.2526,-0.51596 -1.87888,-0.77392 -0.0882,0.17297 -0.17636,0.34597 -0.26456,0.51898 0.61978,0.50235 1.23957,1.0047 2.10581,2.15182 5.49133,7.08243 10.98266,14.16483 17.05417,21.99552 -11.29969,1.00036 -21.23902,1.88031 -31.17835,2.76025 -6.4e-4,0.2872 -0.001,0.57437 -0.002,0.86157 9.90774,1.4029 19.81552,2.80579 30.25024,4.28333 -6.94665,8.75876 -12.9815,16.36786 -19.01632,23.97699 0.15716,0.12598 0.31436,0.25195 0.47152,0.37796 8.13196,-6.05963 16.26395,-12.11926 24.88535,-18.54361 1.41086,10.55929 2.72946,20.42798 4.04806,30.29666 0.28522,-0.0661 0.57044,-0.13226 0.85565,-0.19839 1.22782,-9.80268 2.45566,-19.60532 3.75629,-29.9892 7.54144,5.42117 14.58481,10.48431 21.85565,16.15726 z"
         id="path48"
         style="fill:#000000;fill-opacity:0" /><path
         fill="#fcfcfc"
         opacity="1"
         stroke="none"
         d="m 338.80142,306.16072 c 7.32181,5.34042 14.64359,10.68087 22.20969,16.19949 1.16455,-9.57828 2.34869,-19.31766 3.5328,-29.05704 0.29605,-0.0516 0.59207,-0.10327 0.88809,-0.15491 1.24164,9.76999 2.48328,19.53998 3.77558,29.70853 8.23059,-6.24673 16.15445,-12.26065 24.07834,-18.27456 0.28271,0.28527 0.56543,0.57058 0.84817,0.85589 -3.21768,3.89725 -6.52984,7.72119 -9.62613,11.71259 -3.01559,3.88748 -5.81024,7.94632 -9.00073,12.34164 11.05075,1.10697 21.1684,2.12048 31.28604,3.134 -0.0542,0.22812 -0.10843,0.45624 -0.16263,0.68436 -10.10574,1.25708 -20.21151,2.51416 -30.48394,3.79199 5.30807,7.12595 10.35122,13.89627 15.39367,21.09189 -0.14035,0.53916 -0.28,0.65292 -0.41964,0.76669 -7.04337,-5.06314 -14.08674,-10.12628 -21.62818,-15.54745 -1.30063,10.38388 -2.52847,20.18652 -3.75629,29.9892 -0.28521,0.0661 -0.57043,0.13226 -0.85565,0.19839 -1.3186,-9.86868 -2.6372,-19.73737 -4.04806,-30.29666 -8.6214,6.42435 -16.75339,12.48398 -24.88535,18.54361 -0.15716,-0.12601 -0.31436,-0.25198 -0.47152,-0.37796 6.03482,-7.60913 12.06967,-15.21823 19.01632,-23.97699 -10.43472,-1.47754 -20.3425,-2.88043 -30.25024,-4.28333 6.4e-4,-0.2872 10e-4,-0.57437 0.002,-0.86157 9.93933,-0.87994 19.87866,-1.75989 31.17835,-2.76025 -6.07151,-7.83069 -11.56284,-14.91309 -17.00071,-22.50891 0.16239,-0.6485 0.27124,-0.78357 0.38007,-0.91864 z"
         id="path49" /><path
         fill="#fcfcfc"
         opacity="1"
         stroke="none"
         d="m 391.76431,358.4698 c 0.9241,0.49325 1.62357,1.13666 2.32303,1.78003 -0.14426,0.22351 -0.28848,0.44699 -0.43271,0.6705 -0.76883,-0.44974 -1.53763,-0.89951 -2.42017,-1.65415 0.0259,-0.41867 0.16556,-0.53243 0.52985,-0.79638 z"
         id="path50" /><path
         fill="#fcfcfc"
         opacity="1"
         stroke="none"
         d="m 338.29812,306.75697 c -0.79647,-0.31134 -1.41626,-0.81369 -2.03604,-1.31604 0.0882,-0.17301 0.17636,-0.34601 0.26456,-0.51898 0.62628,0.25796 1.25259,0.51596 2.07684,1.00634 0.0891,0.3675 -0.0197,0.50257 -0.30536,0.82868 z"
         id="path51" /></g></g></svg>
