<?xml version="1.0" encoding="UTF-8" standalone="no"?>
<svg
   version="1.1"
   id="Layer_1"
   x="0px"
   y="0px"
   width="707.93042"
   viewBox="0 0 707.93042 399.89234"
   enable-background="new 0 0 720 400"
   xml:space="preserve"
   height="399.89233"
   xmlns="http://www.w3.org/2000/svg"
   xmlns:svg="http://www.w3.org/2000/svg"><defs
   id="defs1" />

<path
   style="fill:#ffffff;fill-opacity:1;stroke:none;stroke-width:0.959;stroke-miterlimit:3.9;stroke-dasharray:none;stroke-opacity:1;paint-order:stroke markers fill"
   d="m 343.61849,319.09755 c -6.229,-44.51971 -11.43896,-81.07603 -11.5777,-81.23626 -0.13874,-0.16022 -5.65504,4.85511 -12.25844,11.14519 -40.0702,38.16891 -74.62423,70.6549 -74.88034,70.39879 -0.16333,-0.16333 11.19773,-25.27488 25.24682,-55.80344 14.04908,-30.52856 25.37973,-55.934 25.17921,-56.45654 -0.27969,-0.72886 -1.90621,-0.46674 -6.98558,1.12572 -26.59953,8.3394 -54.34402,4.94428 -81.77153,-10.00647 -5.90195,-3.21715 -6.28835,-3.56211 -4.66347,-4.16319 0.97443,-0.36047 5.27155,-0.97547 9.54916,-1.36668 11.22902,-1.02696 22.62255,-3.32847 32.42164,-6.54923 9.0396,-2.97114 22.38246,-8.87052 23.25466,-10.28177 0.6115,-0.98943 1.23606,-0.95877 -24.28761,-1.19211 -20.53944,-0.18777 -29.06215,-1.1216 -47.04428,-5.15467 -17.58134,-3.94317 -40.05607,-12.12776 -57.46095,-20.92545 -9.05278,-4.57594 -22.40155,-12.55167 -21.88012,-13.07311 0.12062,-0.12061 2.87412,0.42811 6.11891,1.21939 9.17589,2.23765 25.57754,4.8766 36.42354,5.86039 12.63063,1.14567 45.19341,0.51111 56.91135,-1.10903 14.65629,-2.0264 21.93178,-3.5116 20.28973,-4.14187 -0.811,-0.31129 -7.61714,-1.45381 -15.12477,-2.53894 C 136.64263,122.64414 64.988212,94.609122 6.5122217,50.898462 c -3.77386,-2.82095 -6.70012003,-5.29044 -6.50280003,-5.48776 0.19732,-0.19732 7.93348003,2.46168 17.19147033,5.90889 60.19534,22.41369 124.834958,37.28894 197.606098,45.47426 29.6629,3.336508 63.41152,5.952938 76.87288,5.959748 10.86613,0.005 11.84059,0.89083 9.41732,8.55591 -1.80437,5.70739 -2.22134,17.49031 -0.81293,22.97195 3.15655,12.28552 12.67634,23.3668 23.29169,27.11211 l 2.93057,1.03397 0.7679,-3.82602 c 1.90499,-9.49156 6.66994,-37.14192 16.29912,-94.581648 5.71463,-34.0887 10.64141,-62.7815501 10.94841,-63.76189815 0.65274,-2.08448495 2.38798,7.27478805 13.39871,72.26831815 6.50605,38.403438 8.90112,52.042798 14.44303,82.249208 0.67009,3.65236 1.48012,6.92547 1.80006,7.27357 1.1264,1.22557 9.92771,-4.26422 15.17396,-9.46469 5.4665,-5.41881 9.06764,-11.59105 10.57216,-18.12029 1.25248,-5.43547 0.93542,-15.95828 -0.68443,-22.71513 -0.80879,-3.3737 -1.47053,-6.26731 -1.47053,-6.43023 0,-1.22943 5.65617,-1.95476 25.53305,-3.27433 48.93457,-3.248608 78.25311,-6.379378 111.33822,-11.889238 61.16295,-10.18582 112.00153,-24.18329 162.64442,-44.78115 0.88966,-0.36185 0.88324,-0.18373 -0.0409,1.1357 -1.93931,2.76876 -11.04575,9.77477 -22.78082,17.52636 -56.19396,37.118878 -114.64923,58.457598 -193.90791,70.784858 -8.64436,1.34447 -15.88367,2.61116 -16.08738,2.81487 -0.46666,0.46665 10.39578,2.47632 21.27815,3.93668 11.68549,1.56813 40.7621,2.16143 52.99544,1.08135 11.82517,-1.04404 27.98103,-3.69903 38.01846,-6.24781 3.99804,-1.01521 7.38823,-1.72676 7.53377,-1.58122 0.55426,0.55426 -7.90032,6.31561 -15.03238,10.24378 -9.31023,5.12785 -26.50362,12.78563 -38.63281,17.20669 -25.82001,9.41134 -58.14293,14.29931 -86.74363,13.11762 l -11.06776,-0.45729 2.58248,1.64855 c 5.30293,3.38517 17.56963,8.9514 24.34906,11.04883 8.7183,2.69727 18.4858,4.71311 30.31977,6.25746 5.01886,0.65497 9.23468,1.30033 9.3685,1.43415 0.36516,0.36516 -7.50486,4.53046 -14.60135,7.72795 -24.13641,10.87523 -48.40736,12.59863 -72.57125,5.15305 -3.99932,-1.2323 -7.38592,-2.12611 -7.52579,-1.98624 -0.13987,0.13987 10.70358,23.98371 24.09658,52.98631 29.30956,63.47006 27.26359,58.89236 26.52538,59.3486 -0.73992,0.45729 -14.07729,-11.61886 -39.88287,-36.11142 -47.18377,-44.78302 -47.03072,-44.64441 -47.5386,-43.05412 -0.17169,0.53759 -5.34739,36.83698 -11.50156,80.6653 -6.15417,43.82832 -11.25461,79.7555 -11.33431,79.83817 -0.0797,0.0827 -5.24137,-36.27492 -11.47036,-80.79464 z"
   id="path2" /></svg>
