<?xml version="1.0" encoding="UTF-8" standalone="no"?>
<svg
   version="1.1"
   id="Layer_1"
   x="0px"
   y="0px"
   width="557.17566"
   viewBox="0 0 557.17566 571.91858"
   enable-background="new 0 0 561 572"
   xml:space="preserve"
   sodipodi:docname="StormBearer.svg"
   height="571.91858"
   xmlns:inkscape="http://www.inkscape.org/namespaces/inkscape"
   xmlns:sodipodi="http://sodipodi.sourceforge.net/DTD/sodipodi-0.dtd"
   xmlns="http://www.w3.org/2000/svg"
   xmlns:svg="http://www.w3.org/2000/svg"><defs
   id="defs17" /><sodipodi:namedview
   id="namedview17"
   pagecolor="#747474"
   bordercolor="#000000"
   borderopacity="0"
   inkscape:showpageshadow="2"
   inkscape:pageopacity="0.0"
   inkscape:pagecheckerboard="true"
   inkscape:deskcolor="#d1d1d1" />

<path
   fill="#f1f0f1"
   opacity="1"
   stroke="none"
   d="m 99.865361,201.00523 c 2.383109,8.15499 3.923299,16.68405 7.339119,24.38073 5.68188,12.80265 13.65407,24.06088 27.7676,29.02073 1.52313,0.53527 3.89492,0.58945 4.9983,-0.26405 0.79492,-0.6149 0.43386,-3.17705 0.0774,-4.75519 -2.59263,-11.478 -5.91511,-22.83025 -7.77783,-34.41977 -1.17216,-7.29314 -0.21847,-14.92793 -0.21847,-22.59901 2.75415,4.83203 5.27345,9.56032 8.13795,14.06929 0.7526,1.18463 2.5744,1.69001 3.9052,2.50732 0.63478,-1.38943 1.74232,-2.75406 1.81686,-4.17294 0.23571,-4.48665 0.14218,-8.99448 0.0737,-13.49256 -0.30552,-20.06974 3.09838,-39.58982 9.12325,-58.63987 6.9566,-21.99609 17.99817,-41.744391 32.99281,-59.378737 16.27849,-19.144195 35.2769,-34.816585 57.19763,-47.051338 C 265.71033,14.81747 287.61304,7.687387 310.40073,3.001153 314.14429,2.2313 317.88892,1.466667 321.31653,0.34980603 340.68756,-3.9730843e-6 360.37512,-3.9730843e-6 380.53134,2.6915679e-8 381.64197,0.66270103 382.1904,1.762766 382.93988,1.923083 c 13.09555,2.801217 26.27826,5.224988 39.29922,8.329727 5.09424,1.214683 9.83735,3.901797 14.39017,6.333555 -9.53659,2.841491 -17.28604,-1.661635 -24.65002,-5.650514 -6.08536,-3.296284 -15.57779,-2.210871 -18.88217,3.8544 -1.32273,2.427822 -0.58927,3.345157 1.9971,3.244836 0.45129,0.649025 0.76068,1.621775 1.37787,1.892319 3.04214,1.333458 6.1658,2.480784 9.26071,3.693794 0.13266,0.531147 0.26532,1.062296 0.39801,1.593443 -1.78153,0.924004 -3.46964,2.327757 -5.35944,2.695898 -14.71444,2.866383 -29.51813,5.30143 -44.16073,8.484082 -2.52158,0.548084 -4.30967,4.130642 -6.62897,6.08292 -1.29654,1.091373 -2.89667,2.082599 -4.51758,2.486232 -11.19049,2.786599 -22.42517,5.395321 -33.63336,8.111939 -0.57745,0.139961 -1.04227,0.744812 -1.6803,1.832905 0.53717,2.445633 1.1951,4.191585 1.85303,5.937534 -7.52762,4.703991 -15.27902,9.088436 -22.53934,14.174046 -19.03885,13.336067 -34.36249,30.013391 -44.78427,51.639521 -0.35425,1.0119 -0.38776,1.55521 -0.42127,2.09852 0.43833,-0.32335 0.87667,-0.6467 1.31499,-0.97005 12.00011,-13.36563 25.51885,-24.96339 40.70744,-34.550874 22.44993,-14.171059 46.42133,-24.490006 72.45997,-30.441895 21.16247,-4.837299 42.449,-6.825019 63.95144,-5.65673 21.67334,1.177566 42.89603,5.334797 63.16397,13.50785 0.0889,0.03583 0.0822,0.308731 0.0954,1.185547 -4.38785,2.043495 -7.62988,7.239983 -13.30963,4.383217 -0.72626,-0.365265 -2.4378,1.228462 -3.69287,1.914673 -0.74094,-0.0402 -1.4819,-0.08041 -2.63101,-0.477867 -1.06021,-0.416016 -1.71225,-0.474777 -2.36429,-0.533547 -0.43759,-0.03862 -0.87515,-0.07724 -1.72049,-0.533966 -1.38776,-0.190757 -2.36774,0.0366 -3.34775,0.26397 -7.22009,-0.402039 -14.44015,-0.804077 -22.72003,-1.265129 3.18378,6.754493 11.08948,4.287964 14.42941,10.442459 -4.08905,1.386345 -7.97836,2.591369 -11.78415,4.019035 -7.79397,2.923805 -15.72613,5.576904 -23.24441,9.102673 -4.76578,2.234944 -6.7226,7.460834 -5.34812,11.330884 1.72654,4.86124 6.01075,5.90026 10.47428,6.50843 2.41958,0.32967 4.8324,0.80686 7.26333,0.93798 9.1941,0.49591 9.80063,2.26669 10.30967,12.4226 31.91952,1.53705 62.9273,7.6543 91.35141,23.29279 -0.86286,0.5677 -1.52961,0.78458 -1.61396,0.81201 1.74115,2.35436 3.34455,4.52245 4.94794,6.69054 -9.53693,-2.80966 -19.03638,-5.75778 -28.63214,-8.34961 -3.1221,-0.84331 -6.49555,-0.75606 -9.75403,-1.09442 -0.62939,0.74607 -1.25879,1.49214 -1.88818,2.2382 2.06622,1.14582 4.58584,1.89017 6.06256,3.55795 1.30212,1.47057 1.4397,3.97226 2.09152,6.01865 -2.10812,0.56026 -4.30768,1.82822 -6.31003,1.56961 -17.09057,-2.20723 -34.09097,-5.22552 -51.22329,-6.97099 -27.57349,-2.80922 -54.13129,1.87662 -79.07642,13.96762 -26.45181,12.82129 -43.75058,33.65892 -50.79889,62.30543 -2.81991,11.46094 -3.8168,23.29642 -1.46762,35.13242 0.25382,1.27875 0.0342,2.65146 0.0342,4.94568 -6.15942,-10.48752 -9.87015,-20.91647 -11.98709,-31.93753 -5.18732,-27.00621 -2.26227,-52.56453 14.04962,-75.53325 9.18167,-12.92867 20.56604,-23.52625 34.53266,-31.2381 1.68655,-0.93126 3.55145,-2.03204 4.56768,-3.56279 1.33963,-2.01781 3.05835,-4.87138 2.50867,-6.74939 -0.5473,-1.86979 -3.60904,-4.04307 -5.72507,-4.22127 -6.61355,-0.55694 -13.31054,-0.46694 -19.958,-0.1996 -10.94675,0.44026 -21.47489,3.30001 -31.16114,8.14386 -9.03299,4.51717 -17.98446,9.60337 -25.95553,15.75582 -18.22448,14.06656 -26.43355,34.32847 -31.65932,55.89445 -1.71726,7.08693 -1.83949,14.56037 -2.79361,22.73532 -0.98729,-0.90783 -2.04675,-1.42959 -2.36054,-2.24006 -3.40269,-8.78853 -6.15826,-17.70484 -6.17456,-27.31162 -0.003,-2.03175 -1.24801,-4.32042 -2.52021,-6.0497 -9.54013,-12.96774 -10.57975,-27.50139 -8.43952,-42.77342 0.95217,-6.79439 1.44565,-13.65524 2.06217,-20.4936 0.33566,-3.72318 0.26231,-7.88871 -3.67026,-9.38658 -4.48221,-1.70724 -7.72603,1.87538 -10.26126,4.86941 -8.47565,10.00941 -13.09954,21.99066 -14.85504,34.74011 -1.78644,12.97403 -2.5251,26.12645 -3.0365,39.22753 -0.25495,6.5308 1.02302,13.12147 0.81386,20.04147 -3.87757,-5.5528 -7.75513,-11.10561 -11.6327,-16.6584 -0.55126,0.22441 -1.10255,0.44882 -1.65382,0.67323 -0.55211,1.80357 -1.50622,3.58774 -1.5943,5.41368 -0.90327,18.72748 3.16962,36.42198 10.86867,53.46614 6.571,14.54691 15.31962,27.64237 26.58334,38.76502 19.47545,19.23153 42.62398,31.67202 69.93849,36.25418 23.4628,3.93597 46.05433,2.00201 67.63746,-8.20078 5.21167,-2.46368 9.86077,-6.11743 15.19775,-9.22699 0.54394,0.13642 0.65878,0.27594 0.77365,0.41547 -5.20923,9.92816 -13.70697,16.76633 -22.71884,22.70883 -16.64432,10.97534 -34.9939,18.11789 -54.89697,20.103 -13.92157,1.38852 -28.05146,2.70114 -41.95015,1.83395 C 225.8082,358.4295 205.98085,352.66446 186.8828,344.1225 164.23985,333.99496 144.85532,319.53656 128.77951,301.00696 113.00754,282.82758 102.2699,261.7533 97.987542,237.75644 97.023446,232.354 96.002854,226.96165 95.499024,221.01916 c 0.828553,-5.70445 1.215615,-10.86088 1.479722,-16.0236 0.104309,-2.03914 -0.160798,-4.16084 2.886615,-3.99033 z"
   id="path2" />
<path
   fill="#f1f0f1"
   opacity="1"
   stroke="none"
   d="m 0,352.33331 c 1.007853,0.40055 2.204258,0.97241 2.994999,1.8928 10.254946,11.93618 19.799016,24.56668 30.824422,35.73684 14.787716,14.98191 31.857689,27.26154 50.254005,37.66529 16.041604,9.07214 32.687274,16.76846 50.501844,21.40866 13.87729,3.61465 27.96022,6.87344 42.15627,8.7073 13.86151,1.79068 28.00924,2.42813 41.98124,1.98657 12.6399,-0.39947 25.23659,-2.76886 37.80852,-4.57461 18.93018,-2.71887 36.81519,-9.02512 54.50943,-16.07626 19.76959,-7.87815 37.90643,-18.56232 54.6741,-31.49753 7.45047,-5.74756 14.01462,-12.64405 21.57493,-19.56241 -1.57755,9.87481 -5.11869,18.51825 -9.27823,26.91522 -4.10935,8.29553 -8.4971,16.45316 -13.33136,25.76685 25.63397,-14.47721 47.74417,-31.23301 62.93225,-55.84928 15.5365,-25.18103 20.47336,-52.67016 16.2601,-81.61841 -4.14053,-28.44833 -18.06424,-52.57499 -35.20301,-75.56146 5.8783,3.70958 12.00782,7.07807 17.59009,11.18955 20.83036,15.34195 37.48935,34.25714 48.16312,58.04437 5.69217,12.68552 10.22296,25.79242 11.52545,39.7175 1.02673,10.97674 1.24167,22.02719 2.10855,33.02191 0.61298,7.77475 2.44855,15.27042 7.05368,21.81201 4.27002,6.06555 14.95298,6.54324 21.0138,0.90952 7.4129,-6.89051 10.86718,-15.87528 13.43384,-25.35202 3.54187,-13.07743 5.30511,-26.43021 4.33727,-39.89487 -1.59326,-22.16705 -7.61798,-43.2164 -18.23168,-62.81537 -3.8592,-7.12628 -8.18424,-14.00024 -11.5672,-21.73932 5.30124,5.31424 11.41033,10.04856 15.73077,16.0669 8.27936,11.53323 16.23962,23.41507 23.03949,35.8587 7.38,13.50528 11.44507,28.3367 13.18689,43.74634 3.54693,31.37915 -1.16876,61.40063 -15.16742,89.71127 -3.75397,7.59186 -8.92401,14.53931 -13.96747,21.39755 -1.22351,1.66373 -4.74029,2.76761 -6.7926,2.306 -1.409,-0.31689 -2.37769,-3.69995 -3.05603,-5.86511 -0.77728,-2.48092 -1.01575,-5.13064 -1.48834,-7.70706 -0.58222,-0.10083 -1.16443,-0.20169 -1.74659,-0.30255 -3.19528,5.19781 -6.67566,10.24426 -9.53134,15.6224 -7.97027,15.01056 -18.01138,28.45176 -29.22784,41.19095 -14.74671,16.74878 -31.36609,30.99915 -51.37409,41.03076 -3.06179,1.53516 -6.63723,2.04572 -9.97512,3.03016 -0.44172,-0.43634 -0.88343,-0.87262 -1.32517,-1.30896 1.17676,-2.63624 2.49143,-5.22291 3.46607,-7.93183 0.42288,-1.17541 0.14569,-2.60272 0.18643,-3.91559 -1.29648,0.27082 -2.80789,0.20203 -3.85587,0.86536 -9.41568,5.95996 -18.67035,12.17835 -28.16846,18.00085 -2.1669,1.32837 -5.09201,1.4198 -7.88317,2.13562 0.17388,-3.06646 0.29513,-5.20434 0.45672,-8.05365 -11.70968,6.14881 -22.06555,12.03376 -32.80163,17.11542 -14.75138,6.98224 -30.11423,12.30426 -46.41007,14.5127 -0.71026,0.0962 -1.33743,0.80603 -1.69244,1.57879 C 284.31244,572 272.62488,572 260.76898,571.69543 c -2.71576,-2.13763 -5.26318,-3.97076 -7.81065,-5.80383 0.0994,-0.60937 0.19876,-1.21869 0.29814,-1.828 38.49786,-6.08887 73.29816,-20.25641 101.31424,-44.80029 5.38302,0.67913 9.65954,2.30444 13.40173,1.48614 10.97248,-2.39935 20.73908,-7.74176 29.51444,-14.77914 4.62246,-3.70694 9.15085,-7.53113 13.72171,-11.3024 0.33682,0.27737 0.67364,0.55475 1.01047,0.83215 -2.21396,3.77786 -4.42789,7.55576 -7.34635,12.53577 2.77429,0 4.81198,0.62726 6.02512,-0.10724 5.62542,-3.40595 11.65783,-6.51685 16.37371,-10.97254 11.22724,-10.60775 19.31904,-23.5397 24.64667,-38.06158 2.19999,-5.99652 4.15323,-12.17172 2.56589,-19.56323 -2.25522,1.75049 -4.1644,2.9454 -5.72629,4.49124 -10.10019,9.99618 -19.80597,20.4205 -30.32306,29.95187 -4.51196,4.08914 -10.5458,6.60221 -16.12002,9.36338 -2.12085,1.05056 -3.92844,0.0816 -2.87616,-3.04944 0.8425,-2.50693 1.28769,-5.1474 1.90918,-7.72861 -0.39991,-0.24451 -0.79981,-0.48901 -1.19974,-0.73355 -1.75088,1.33313 -3.54629,2.61215 -5.24463,4.00915 -6.06366,4.98771 -11.88629,10.29868 -18.2026,14.93949 -5.15803,3.78982 -8.16263,2.66958 -9.39048,-3.55945 -3.12069,2.41708 -5.83511,4.60001 -8.63147,6.67236 -19.76944,14.65097 -40.6972,27.21527 -63.63952,36.3899 -23.8816,9.55011 -48.53284,16.19586 -74.14524,17.71887 -22.95488,1.36505 -45.86393,0.17724 -68.46417,-5.65723 C 111.54019,531.58307 75.804879,512.45679 46.891675,481.341 c -2.61652,-2.81588 -4.661686,-6.16266 -6.848972,-9.49933 0.175144,-0.40646 0.227062,-0.57644 0.599724,-0.55984 1.030574,0.56064 1.833637,0.82275 2.436759,1.32498 21.447022,17.85928 45.533432,30.9707 71.929604,39.87756 8.04326,2.71406 16.03256,5.90802 24.74251,5.44623 0.36294,-0.45782 0.72589,-0.91559 1.08882,-1.37341 -4.05878,-3.83106 -8.11757,-7.66208 -12.17635,-11.49313 0.20506,-0.51456 0.41014,-1.02912 0.61522,-1.54364 9.26074,0.68237 18.51229,1.6672 27.78522,1.94958 7.17317,0.21838 14.38345,-0.30618 21.55099,-0.84772 1.19274,-0.0901 2.25118,-1.95761 3.37168,-3.00378 -1.0541,-1.09219 -1.91548,-2.71872 -3.19681,-3.18085 -4.67027,-1.68432 -9.39143,-3.50515 -14.25371,-4.33255 -23.47687,-3.99496 -45.31404,-12.38855 -65.823247,-24.26608 -5.272949,-3.05374 -9.899338,-7.22388 -14.518379,-10.65506 3.743545,-1.31604 6.76326,-2.37763 9.782974,-3.43921 -2.031799,-2.24884 -3.650063,-5.25168 -6.160202,-6.62842 C 65.852578,437.06897 46.570748,421.85577 30.758851,402.32245 19.833114,388.82529 10.380554,374.46304 3.665932,358.36941 2.967188,356.69464 1.246522,355.44623 3e-6,354 1e-6,353.55554 1e-6,353.11111 0,352.33331 Z"
   id="path3" />

<path
   fill="#f1f0f1"
   opacity="1"
   stroke="none"
   d="m 100.02017,51.016369 c 21.87504,-18.830242 46.18326,-32.136423 74.29225,-37.993097 -17.23556,8.652997 -33.08059,19.182535 -47.30804,32.331739 -22.50537,20.799763 -38.180633,45.878483 -49.097427,74.317529 -6.130249,15.96975 -9.7416,32.50745 -11.686676,49.32635 -1.383522,11.96307 -0.899506,24.1434 -1.216339,36.22761 -0.07244,2.76282 -0.01068,5.52915 -0.01068,9.62233 -1.763535,-3.13383 -2.831101,-5.1808 -4.03637,-7.14317 -3.001945,-4.88768 -8.720932,-5.23802 -11.037414,-0.0566 -3.241669,7.25087 -6.475312,14.84915 -7.629338,22.6086 -1.71186,11.51027 -2.268749,23.30182 -2.097015,34.95566 0.227387,15.43063 3.356472,30.50763 8.591274,45.08801 0.151993,0.42334 0.01921,0.94888 0.01921,2.94187 -28.254877,-36.42191 -34.772057,-76.72303 -29.788593,-121.09537 2.870665,3.12286 5.084764,5.53148 7.298864,7.94011 0.565321,-0.0532 1.130644,-0.10642 1.695965,-0.15963 C 31.830182,140.48347 55.896764,90.951557 100.02017,51.016369 Z"
   id="path5" />
<path
   fill="#f3f3f3"
   opacity="1"
   stroke="none"
   d="m 395.53809,18.018978 c -3.03028,0.11643 -3.76374,-0.800905 -2.44101,-3.228727 3.30438,-6.065271 12.79681,-7.150684 18.88217,-3.8544 7.36398,3.988879 15.11343,8.492005 24.71103,6.045953 7.49658,2.918983 14.9443,5.213922 21.58133,8.949297 9.66693,5.44066 18.75631,11.90891 28.06848,17.975038 0.60168,0.391964 1.00302,1.091534 2.35751,2.615692 -8.68017,-4.032566 -16.13629,-7.649574 -23.71573,-10.986522 -16.99444,-7.482043 -34.58761,-12.992731 -53.03949,-15.516047 -5.31271,-0.726517 -10.63986,-1.347196 -16.40429,-2.000284 z"
   id="path6" />
<path
   fill="#f3f3f4"
   opacity="1"
   stroke="none"
   d="m 469.14307,78.482921 c 1.06128,-1.039154 2.77282,-2.632881 3.49908,-2.267616 5.67975,2.856766 8.92178,-2.339722 13.34088,-3.996284 2.68677,0.374244 5.48276,0.716209 7.92173,1.835899 17.27236,7.92942 33.44442,17.602203 47.3663,30.7134 1.10992,1.04526 2.06787,2.25194 3.09643,3.38359 -0.28271,0.35631 -0.56543,0.71262 -0.84814,1.06892 -2.97876,-1.67784 -5.9599,-3.35146 -8.93592,-5.03421 -19.09411,-10.796548 -39.0635,-19.443506 -60.4595,-24.569879 -1.56805,-0.375694 -3.19015,-0.525856 -4.98086,-1.13382 z"
   id="path7" />
<path
   fill="#eeeeee"
   opacity="1"
   stroke="none"
   d="m 533.10852,161.47424 c -1.7608,-2.49949 -3.3642,-4.66758 -5.10535,-7.02194 0.0844,-0.0274 0.7511,-0.24431 1.76392,-0.47726 8.22546,5.05809 16.10467,10.13224 23.98395,15.20642 -0.38178,0.6501 -0.76361,1.3002 -1.14539,1.95031 -6.44659,-3.1087 -12.89313,-6.21742 -19.49713,-9.65753 z"
   id="path8" />
<path
   fill="#e9e9ea"
   opacity="1"
   stroke="none"
   d="m 99.942251,200.58728 c -3.124303,0.24744 -2.859196,2.36914 -2.963505,4.40828 -0.264107,5.16272 -0.651169,10.31915 -1.422677,15.52112 -0.482826,-7.77172 -0.649421,-15.58899 -0.479126,-23.39893 0.03293,-1.50989 1.382996,-2.99107 2.125466,-4.4855 0.56414,0.0971 1.128288,0.19429 1.692428,0.29143 0.374764,2.4152 0.749524,4.83042 1.047414,7.6636 z"
   id="path9" />
<path
   fill="#f6f5f6"
   opacity="1"
   stroke="none"
   d="m 312.30273,60.877392 c -0.95724,-1.777188 -1.61517,-3.52314 -2.26626,-5.633973 4.03287,-0.517139 8.05991,-0.648296 12.08404,-0.840019 0.77533,-0.03694 1.53931,-0.311249 2.75867,0.584442 -3.00159,1.336518 -6.00317,2.673039 -9.60574,4.102143 -0.887,0.245083 -1.10929,0.462658 -1.26786,0.745308 -0.46783,0.35778 -0.93566,0.715557 -1.70285,1.042099 z"
   id="path10" />
<path
   fill="#f3f3f4"
   opacity="1"
   stroke="none"
   d="m 459.19116,76.92522 c 0.67459,-0.304023 1.65457,-0.531379 2.7208,-0.415291 -0.74765,0.392952 -1.58155,0.442452 -2.7208,0.415291 z"
   id="path11" />
<path
   fill="#f3f3f4"
   opacity="1"
   stroke="none"
   d="m 464.06946,77.412021 c 0.53656,-0.234687 1.1886,-0.175926 1.8847,0.16523 -0.56036,0.230995 -1.16479,0.179611 -1.8847,-0.16523 z"
   id="path12" />
<path
   fill="#f1f0f1"
   opacity="1"
   stroke="none"
   d="m 365.58417,314.43555 c 0.48578,-0.92621 1.12729,-1.63059 1.7688,-2.33493 0.22464,0.1354 0.44928,0.27078 0.67392,0.40618 -0.44404,0.77909 -0.8881,1.5582 -1.6373,2.45322 -0.42008,-0.0236 -0.53492,-0.16308 -0.80542,-0.52447 z"
   id="path13" />
<path
   fill="#f1f0f1"
   opacity="1"
   stroke="none"
   d="m 314.27652,59.889179 c -0.11237,-0.336536 0.10992,-0.554111 0.621,-0.777 0.0334,0.230033 -0.15835,0.53046 -0.621,0.777 z"
   id="path14" />

<path
   fill="#f1f0f1"
   opacity="1"
   stroke="none"
   d="m 38.91665,471.08963 c -0.721169,-0.77393 -1.442337,-1.54788 -2.163506,-2.32181 0.206219,-0.22653 0.412442,-0.45306 0.618664,-0.67956 0.743023,0.66412 1.48605,1.32827 2.130734,2.37777 -0.260857,0.46476 -0.423371,0.54416 -0.585892,0.6236 z"
   id="path16" />
<path
   fill="#f1f0f1"
   opacity="1"
   stroke="none"
   d="m 39.665944,470.77991 c 0.261746,-0.0714 0.569321,0.14532 0.61253,0.23034 -0.0087,0.25498 -0.06063,0.42496 -0.235767,0.83142 -0.41161,0.0725 -0.700005,-0.0914 -1.057225,-0.50366 0.09369,-0.32782 0.256203,-0.40722 0.680462,-0.5581 z"
   id="path17" />
</svg>
